<svg width="84" height="28" viewBox="0 0 84 28" fill="none" xmlns="http://www.w3.org/2000/svg">
<path d="M36 15C36 19.0302 32.8571 22 29 22C25.1429 22 22 19.0302 22 15C22 10.9414 25.1429 8 29 8C32.8571 8 36 10.9414 36 15ZM32.9357 15C32.9357 12.4815 31.1141 10.7584 29 10.7584C26.8859 10.7584 25.0643 12.4816 25.0643 15C25.0643 17.4933 26.8859 19.2416 29 19.2416C31.1141 19.2418 32.9357 17.4901 32.9357 15Z" fill="#FF4131"/>
<path d="M51 15C51 19.0302 47.8571 22 44 22C40.1429 22 37 19.0302 37 15C37 10.9445 40.1429 8 44 8C47.857 8 51 10.9414 51 15ZM47.9357 15C47.9357 12.4815 46.1141 10.7584 44 10.7584C41.8859 10.7584 40.0643 12.4816 40.0643 15C40.0643 17.4933 41.8859 19.2416 44 19.2416C46.1141 19.2418 47.9357 17.4901 47.9357 15Z" fill="#FFBC00"/>
<path d="M65 8.41734V20.8165C65 25.9169 62.0465 28 58.5551 28C55.2684 28 53.2902 25.7611 52.5442 23.9302L55.1369 22.831C55.5985 23.9551 56.7298 25.2816 58.552 25.2816C60.7869 25.2816 62.1719 23.8772 62.1719 21.2336V20.2404H62.0679C61.4015 21.078 60.1172 21.8097 58.4969 21.8097C55.1063 21.8097 52 18.8017 52 14.9313C52 11.0329 55.1063 8 58.4969 8C60.1143 8 61.3984 8.7317 62.0679 9.54442H62.1719V8.4203H65V8.41734ZM62.3829 14.9313C62.3829 12.4994 60.7899 10.7215 58.7629 10.7215C56.7084 10.7215 54.987 12.4994 54.987 14.9313C54.987 17.3383 56.7082 19.0913 58.7629 19.0913C60.7899 19.0915 62.3829 17.3383 62.3829 14.9313Z" fill="#0085F7"/>
<path d="M70 1V21H67V1H70Z" fill="#00A94B"/>
<path d="M81.4641 17.3071L83.8665 18.8977C83.0911 20.0371 81.2226 22 77.9941 22C73.9902 22 71 18.926 71 15C71 10.8372 74.0157 8 77.6477 8C81.3051 8 83.0943 10.8908 83.679 12.453L84 13.2483L74.5781 17.124C75.2994 18.5284 76.4212 19.2448 77.9941 19.2448C79.5702 19.2449 80.6634 18.4747 81.4641 17.3071ZM74.0697 14.7886L80.368 12.1913C80.0216 11.317 78.9793 10.708 77.7528 10.708C76.1797 10.7079 73.9902 12.087 74.0697 14.7886Z" fill="#FF4131"/>
<path d="M10.9303 12.4817V9.61282H20.853C20.9501 10.1128 21 10.7043 21 11.3445C21 13.497 20.396 16.1584 18.4498 18.0548C16.5566 19.9756 14.1377 21 10.9334 21C4.99415 21 0 16.2866 0 10.5001C0 4.71361 4.99415 0 10.9334 0C14.2191 0 16.5597 1.25607 18.3183 2.89332L16.2405 4.91768C14.9795 3.76517 13.2709 2.86891 10.9303 2.86891C6.59317 2.86891 3.20117 6.27442 3.20117 10.5001C3.20117 14.7257 6.59317 18.1312 10.9303 18.1312C13.7434 18.1312 15.3455 17.0306 16.372 16.0306C17.2044 15.2196 17.752 14.0612 17.9679 12.4788L10.9303 12.4817Z" fill="#0085F7"/>
</svg>
