<svg width="16" height="16" viewBox="0 0 16 16" fill="none" xmlns="http://www.w3.org/2000/svg">
<g clip-path="url(#clip0_4024_70)">
<path d="M8.00239 4.40527C6.01727 4.40527 4.41016 6.01413 4.41016 7.9975C4.41016 9.98262 6.01902 11.5897 8.00239 11.5897C9.98751 11.5897 11.5946 9.98087 11.5946 7.9975C11.5946 6.01238 9.98576 4.40527 8.00239 4.40527ZM8.00239 10.3291C6.71378 10.3291 5.67076 9.28552 5.67076 7.9975C5.67076 6.70948 6.71437 5.66588 8.00239 5.66588C9.29041 5.66588 10.334 6.70948 10.334 7.9975C10.3346 9.28552 9.291 10.3291 8.00239 10.3291Z" fill="#434A57"/>
<path d="M10.8866 1.04398C9.59862 0.983892 6.40831 0.986809 5.11912 1.04398C3.98627 1.09706 2.987 1.37065 2.1814 2.17625C0.835046 3.52261 1.00713 5.33681 1.00713 7.99744C1.00713 10.7205 0.855463 12.4927 2.1814 13.8186C3.53301 15.1697 5.37346 14.9929 8.00259 14.9929C10.7 14.9929 11.631 14.9947 12.5848 14.6254C13.8815 14.122 14.8604 12.9629 14.956 10.8809C15.0167 9.5923 15.0132 6.40258 14.956 5.11339C14.8405 2.65576 13.5216 1.16531 10.8866 1.04398ZM12.9254 12.9279C12.0428 13.8105 10.8184 13.7317 7.98567 13.7317C5.06895 13.7317 3.89935 13.7749 3.04592 12.9191C2.06298 11.9408 2.2409 10.3699 2.2409 7.98811C2.2409 4.76513 1.91015 2.444 5.14479 2.27833C5.88797 2.25208 6.10672 2.24333 7.97751 2.24333L8.00376 2.26083C11.1124 2.26083 13.5514 1.93533 13.6978 5.16939C13.731 5.90732 13.7386 6.12899 13.7386 7.99686C13.738 10.8797 13.7929 12.0563 12.9254 12.9279Z" fill="#434A57"/>
<path d="M11.7369 5.1027C12.2005 5.1027 12.5763 4.72687 12.5763 4.26326C12.5763 3.79966 12.2005 3.42383 11.7369 3.42383C11.2733 3.42383 10.8975 3.79966 10.8975 4.26326C10.8975 4.72687 11.2733 5.1027 11.7369 5.1027Z" fill="#434A57"/>
</g>
<defs>
<clipPath id="clip0_4024_70">
<rect width="16" height="16" fill="white"/>
</clipPath>
</defs>
</svg>
