<svg width="16" height="16" viewBox="0 0 16 16" fill="none" xmlns="http://www.w3.org/2000/svg">
<g clip-path="url(#clip0_4024_319)">
<path d="M14.9967 13.9998V13.9992H15.0002V8.86469C15.0002 6.35287 14.4594 4.41797 11.523 4.41797C10.1113 4.41797 9.16396 5.19263 8.77722 5.92704H8.73638V4.65247H5.95215V13.9992H8.8513V9.37103C8.8513 8.15245 9.0823 6.97412 10.5914 6.97412C12.0783 6.97412 12.1004 8.36478 12.1004 9.44919V13.9998H14.9967Z" fill="#434A57"/>
<path d="M1.23047 4.65332H4.13312V14H1.23047V4.65332Z" fill="#434A57"/>
<path d="M2.68116 0C1.75308 0 1 0.753079 1 1.68116C1 2.60923 1.75308 3.37806 2.68116 3.37806C3.60923 3.37806 4.36231 2.60923 4.36231 1.68116C4.36173 0.753079 3.60865 0 2.68116 0V0Z" fill="#434A57"/>
</g>
<defs>
<clipPath id="clip0_4024_319">
<rect width="16" height="16" fill="white"/>
</clipPath>
</defs>
</svg>
