<svg width="114" height="35" viewBox="0 0 114 35" fill="none" xmlns="http://www.w3.org/2000/svg">
<path d="M4.29199 11.3959C4.29199 12.7577 4.64966 12.9249 6.22339 12.9966V13.4744H0V12.9966C1.2876 12.9249 1.66911 12.7816 1.66911 11.3959V2.41297C1.66911 1.0273 1.31144 0.883959 0.047688 0.812287V0.310581H11.0161L11.0876 3.20137H10.5392C10.0862 1.74403 9.58544 1.26621 7.01025 1.26621H5.00732C4.41121 1.26621 4.26814 1.40956 4.26814 1.93515V6.09215H6.50951C8.56013 6.09215 8.98933 5.73379 9.25162 4.34812H9.75235V9.00683H9.25162C8.98933 7.45392 8.20247 7.07167 6.50951 7.07167H4.29199V11.3959ZM17.2395 11.3959C17.2395 12.7577 17.5972 12.9249 19.1709 12.9966V13.4744H12.6852V12.9966C14.2589 12.9249 14.6166 12.7816 14.6166 11.3959V2.41297C14.6166 1.0273 14.2589 0.883959 12.6852 0.812287V0.310581H19.1709V0.812287C17.5972 0.860069 17.2395 1.0273 17.2395 2.41297V11.3959ZM32.7145 2.77133C32.7145 1.48123 32.3568 0.979523 30.9262 0.812287V0.310581H35.552V0.812287C34.1213 0.979523 33.7875 1.48123 33.7875 2.77133V13.785H33.1437L24.1782 3.41638V11.0137C24.1782 12.3038 24.512 12.8055 25.9427 12.9727V13.4505H21.293V12.9727C22.7237 12.8055 23.0814 12.3038 23.0814 11.0137V2.17406C22.6283 1.38567 22.1037 1.0273 21.293 0.836177V0.334471H24.8697L32.6907 9.38908V2.77133H32.7145ZM39.7247 8.76792L41.7038 3.55973L43.6591 8.76792H39.7247ZM49.1433 13.4744V12.9966C48.1657 13.0205 47.9034 12.5904 47.4026 11.3481L42.7768 0H42.133L37.3165 11.7304C36.9826 12.5427 36.5534 12.7816 35.7189 12.9727V13.4505H39.8917V12.9727C38.9856 12.9727 38.5325 12.7816 38.5325 12.1365C38.5325 11.587 39.1286 10.1297 39.2955 9.72355H44.0406C44.1836 10.1536 44.8274 11.6109 44.8274 12.1365C44.8274 12.7816 44.3506 12.9727 43.4445 12.9727V13.4505L49.1433 13.4744ZM61.8762 2.77133C61.8762 1.48123 61.5185 0.979523 60.1117 0.812287V0.310581H64.7375V0.812287C63.3068 0.979523 62.9492 1.48123 62.9492 2.77133V13.785H62.3054L53.3399 3.41638V11.0137C53.3399 12.3038 53.6976 12.8055 55.1282 12.9727V13.4505H50.4786V12.9727C51.9092 12.8055 52.2669 12.3038 52.2669 11.0137V2.17406C51.8139 1.38567 51.2893 1.0273 50.4786 0.836177V0.334471H54.0552L61.8762 9.38908V2.77133ZM78.4719 10.3686C77.0889 12.7099 75.3006 13.785 72.5823 13.785C68.3142 13.785 65.7867 10.9659 65.7867 6.76109C65.7867 3.77474 68.1473 0 72.7254 0C74.0845 0 76.0397 0.764504 76.3259 0.764504C76.7074 0.764504 76.8266 0.549488 77.1366 0H77.7804L78.0427 4.3959H77.4704C76.6835 2.36519 75.3244 0.883958 73.0353 0.883958C69.9356 0.883958 68.6003 4.22867 68.6003 6.76109C68.6003 10.3208 70.1263 12.686 73.393 12.686C75.9444 12.686 77.3512 10.7986 77.9473 9.96246L78.4719 10.3686ZM84.8383 11.3959C84.8383 12.7577 85.196 12.9249 86.7697 12.9966V13.4744H80.284V12.9966C81.8578 12.9249 82.2154 12.7816 82.2154 11.3959V2.41297C82.2154 1.0273 81.8578 0.883959 80.284 0.812287V0.310581H86.7697V0.812287C85.196 0.860069 84.8383 1.0273 84.8383 2.41297V11.3959ZM92.1347 8.76792L94.1138 3.55973L96.069 8.76792H92.1347ZM101.553 13.4744V12.9966C100.576 13.0205 100.313 12.5904 99.8126 11.3481L95.1868 0H94.543L89.7264 11.7304C89.3926 12.5427 88.9634 12.7816 88.1288 12.9727V13.4505H92.3016V12.9727C91.3955 12.9727 90.9425 12.7816 90.9425 12.1365C90.9425 11.587 91.5386 10.1297 91.7055 9.72355H96.4505C96.5936 10.1536 97.2374 11.6109 97.2374 12.1365C97.2374 12.7816 96.7605 12.9727 95.8544 12.9727V13.4505L101.553 13.4744ZM102.698 13.4744V12.9966C103.962 12.9488 104.319 12.7816 104.319 11.3959V2.41297C104.319 1.0273 103.962 0.883959 102.698 0.812287V0.310581H108.754V0.812287C107.3 0.860069 106.942 1.0273 106.942 2.41297V11.6587C106.942 12.4471 107.181 12.7099 108.635 12.7099C110.996 12.7099 112.379 12.2799 113.499 9.96246H114L113.118 13.4744C113.142 13.4744 102.698 13.4744 102.698 13.4744ZM2.88517 34.2116C4.38737 34.1399 4.74503 33.9966 4.74503 32.6109V22.5051H3.12362C1.59758 22.5051 1.00146 23.1263 0.572264 24.8942H0L0.309978 21.5256H11.8268L12.1368 24.8942H11.5645C11.1353 23.1024 10.5392 22.5051 9.01318 22.5051H7.39176V32.6109C7.39176 33.9727 7.74942 34.1399 9.25162 34.2116V34.6894H2.90902V34.2116H2.88517ZM18.0502 32.6348C18.0502 33.9966 18.4079 34.1638 19.9816 34.2116V34.7133H13.4959V34.2116C15.0697 34.1638 15.4273 33.9966 15.4273 32.6348V23.6519C15.4273 22.2901 15.0697 22.1229 13.4959 22.0751V21.5734H19.9816V22.0751C18.4079 22.1229 18.0502 22.2901 18.0502 23.6519C18.0502 23.628 18.0502 32.6348 18.0502 32.6348ZM33.7636 21.5495H38.2941V22.0512C37.0303 22.099 36.6727 22.2662 36.6727 23.628V32.6109C36.6727 33.9727 37.0303 34.1399 38.2941 34.2116V34.6894H32.3807V34.2116C33.6683 34.1399 34.0498 33.9966 34.0498 32.6109V23.3652H34.0021L29.6147 34.8805H29.0186L24.7266 23.3891H24.6789V32.2526C24.6789 33.5427 25.0366 34.0444 26.4673 34.2116V34.6894H21.8415V34.2116C23.2721 34.0444 23.6059 33.5427 23.6059 32.2526V23.3174C23.6059 22.4096 23.2244 22.0512 21.8415 22.0512V21.5495H26.6103L30.1155 30.6758C30.0916 30.6758 33.7636 21.5495 33.7636 21.5495ZM40.1539 34.7133V34.2355C41.4177 34.1638 41.7754 34.0205 41.7754 32.6348V23.6519C41.7754 22.2901 41.4177 22.1229 40.1539 22.0751V21.5734H51.1224L51.1939 24.4642H50.6455C50.1686 23.0068 49.6679 22.529 47.1165 22.529H45.1374C44.5413 22.529 44.3982 22.6724 44.3982 23.198V27.3549H46.6396C48.6902 27.3549 49.1194 26.9966 49.3817 25.6109H49.8825V30.2457H49.3817C49.1194 28.6928 48.3326 28.3106 46.6396 28.3106H44.3982V32.8737C44.3982 33.6621 44.6367 33.9249 46.9496 33.9249C49.3102 33.9249 50.6932 33.4949 51.8138 31.1775H52.3146L51.4323 34.6894H40.1539V34.7133ZM54.0314 30.5802H54.5321C55.0805 32.3242 56.7496 34.1399 58.681 34.1399C60.3501 34.1399 60.9463 32.9932 60.9463 31.942C60.9463 28.9317 54.1506 28.3584 54.1506 24.6075C54.1506 22.7918 55.9151 21.2389 57.918 21.2389C59.8971 21.2389 60.5886 21.9317 61.447 21.9317C61.8046 21.9317 62.0431 21.6451 62.1385 21.2389H62.6392V25.4198H62.1385C61.59 23.5324 60.2548 22.1229 58.4664 22.1229C57.0119 22.1229 56.4635 23.0785 56.4635 23.9625C56.4635 26.6382 63.2592 26.7338 63.2592 31.3447C63.2592 33.4232 61.5662 35 59.2056 35C56.8927 35 56.2966 34.1877 55.3905 34.1877C55.0567 34.1877 54.8182 34.4266 54.7467 34.8328H54.0552L54.0314 30.5802Z" fill="#121519"/>
</svg>
