<svg width="132" height="41" viewBox="0 0 132 41" fill="none" xmlns="http://www.w3.org/2000/svg">
<path d="M69.2031 10.1846C69.2031 11.6454 68.013 12.8217 66.5361 12.8217C65.0593 12.8217 63.87 11.6454 63.87 10.1846C63.87 8.72382 65.0187 7.54756 66.5361 7.54756C68.0548 7.58809 69.2031 8.76476 69.2031 10.1846ZM58.2092 15.5001V16.1494C58.2092 16.1494 56.938 14.5256 54.2306 14.5256C49.7598 14.5256 46.2724 17.8935 46.2724 22.5592C46.2724 27.1848 49.7188 30.5927 54.2306 30.5927C56.979 30.5927 58.2092 28.9293 58.2092 28.9293V29.6187C58.2092 29.9434 58.4559 30.1862 58.7837 30.1862H62.1059V14.9302H58.7837C58.4559 14.9314 58.2092 15.2159 58.2092 15.5001ZM58.2092 25.2777C57.5945 26.1706 56.3635 26.9416 54.887 26.9416C52.2619 26.9416 50.2515 25.3186 50.2515 22.5592C50.2515 19.8001 52.2619 18.1772 54.887 18.1772C56.3229 18.1772 57.6355 18.9887 58.2092 19.8407V25.2777ZM64.5675 14.9314H68.5052V30.1874H64.5675V14.9314ZM123.391 14.5252C120.683 14.5252 119.411 16.149 119.411 16.149V7.5881H115.474V30.1874H118.797C119.125 30.1874 119.37 29.9033 119.37 29.6191V28.9297C119.37 28.9297 120.642 30.5931 123.349 30.5931C127.821 30.5931 131.307 27.186 131.307 22.5604C131.307 17.9348 127.821 14.5252 123.391 14.5252ZM122.734 26.9006C121.216 26.9006 120.027 26.1305 119.411 25.2372V19.8001C120.027 18.9887 121.339 18.1367 122.734 18.1367C125.359 18.1367 127.369 19.7596 127.369 22.5187C127.369 25.2777 125.36 26.9006 122.734 26.9006ZM113.423 21.1397V30.2279H109.485V21.5856C109.485 19.0706 108.664 18.0556 106.451 18.0556C105.261 18.0556 104.03 18.6644 103.25 19.5573V30.1878H99.3128V14.9318H102.429C102.758 14.9318 103.004 15.2159 103.004 15.5001V16.1494C104.152 14.9723 105.67 14.5256 107.187 14.5256C108.91 14.5256 110.346 15.0133 111.495 15.9868C112.889 17.123 113.423 18.5834 113.423 21.1397ZM89.7536 14.5252C87.047 14.5252 85.775 16.149 85.775 16.149V7.5881H81.8373V30.1874H85.1595C85.4877 30.1874 85.734 29.9033 85.734 29.6191V28.9297C85.734 28.9297 87.006 30.5931 89.7126 30.5931C94.1843 30.5931 97.6708 27.186 97.6708 22.5604C97.7118 17.9344 94.2253 14.5252 89.7536 14.5252ZM89.0972 26.9006C87.5797 26.9006 86.3905 26.1305 85.775 25.2372V19.8001C86.3905 18.9887 87.703 18.1367 89.0972 18.1367C91.7231 18.1367 93.7327 19.7596 93.7327 22.5187C93.7327 25.2777 91.7231 26.9006 89.0972 26.9006ZM78.4324 14.5252C79.6216 14.5252 80.2371 14.7287 80.2371 14.7287V18.3393C80.2371 18.3393 76.9555 17.2437 74.9049 19.5569V30.2275H70.9664V14.9314H74.2894C74.6176 14.9314 74.8631 15.2155 74.8631 15.4996V16.149C75.6023 15.2966 77.2022 14.5252 78.4324 14.5252ZM37.5357 28.8077C37.3308 28.3209 37.1255 27.7936 36.9206 27.3469C36.592 26.6169 36.2637 25.9266 35.9773 25.2777L35.9363 25.2372C33.1055 19.1508 30.0705 12.9842 26.8705 6.89864L26.7476 6.65463C26.411 6.02332 26.083 5.38759 25.7637 4.74758C25.353 4.01678 24.9433 3.24665 24.2868 2.51585C22.9742 0.892932 21.0871 0 19.0775 0C17.0261 0 15.1804 0.892936 13.8273 2.43439C13.2118 3.16438 12.7602 3.93531 12.3504 4.66611C12.0303 5.30572 11.7023 5.94144 11.3665 6.57316L11.2432 6.81716C8.08449 12.9027 5.00819 19.0697 2.17777 25.1557L2.13639 25.2364C1.84954 25.8865 1.52088 26.576 1.19264 27.3055C0.987744 27.7522 0.782849 28.239 0.577953 28.7663C0.0444066 30.2673 -0.119927 31.6875 0.0857875 33.1487C0.536967 36.1919 2.58756 38.7471 5.41839 39.884C6.48507 40.3307 7.59274 40.5333 8.74097 40.5333C9.06921 40.5333 9.47901 40.4928 9.80766 40.4519C11.1616 40.2897 12.5561 39.8439 13.9101 39.0729C15.5918 38.1395 17.1917 36.8011 18.9964 34.8535C20.8011 36.8011 22.4419 38.1395 24.0827 39.0729C25.4371 39.8439 26.8312 40.2897 28.1847 40.4519C28.5129 40.4932 28.9235 40.5333 29.2518 40.5333C30.4004 40.5333 31.5487 40.3307 32.574 39.884C35.4458 38.7471 37.4554 36.1514 37.907 33.1487C38.2327 31.7289 38.0688 30.3094 37.5357 28.8077ZM19.0361 30.9174C16.8208 28.1584 15.3849 25.5618 14.8931 23.3715C14.6883 22.438 14.6469 21.6265 14.7702 20.8961C14.8518 20.2468 15.0985 19.6785 15.4267 19.1917C16.2061 18.097 17.5187 17.4067 19.0365 17.4067C20.5548 17.4067 21.9084 18.056 22.6468 19.1917C22.975 19.6785 23.2209 20.2472 23.3037 20.8961C23.4262 21.6269 23.3852 22.4785 23.1803 23.3715C22.6865 25.5213 21.2506 28.1182 19.0361 30.9174ZM35.4023 32.8245C35.1155 34.9342 33.6796 36.7606 31.67 37.572C30.6856 37.9773 29.6186 38.0993 28.5527 37.9773C27.5274 37.8553 26.5013 37.5307 25.4354 36.9227C23.9585 36.1104 22.4821 34.8535 20.7589 32.9866C23.466 29.7006 25.1068 26.6976 25.7223 24.0204C26.0095 22.7623 26.0509 21.6265 25.9272 20.5711C25.7637 19.5569 25.394 18.6235 24.8199 17.812C23.5475 15.9856 21.4141 14.9314 19.0357 14.9314C16.6573 14.9314 14.5239 16.027 13.2523 17.812C12.6782 18.6235 12.3086 19.5569 12.1447 20.5711C11.9808 21.6265 12.0213 22.8028 12.3496 24.0204C12.9647 26.6976 14.6465 29.7407 17.3126 33.0271C15.6308 34.8936 14.1129 36.1518 12.636 36.9632C11.5693 37.572 10.5445 37.8967 9.51917 38.0179C8.41191 38.1399 7.34482 37.9774 6.40148 37.6126C4.39187 36.8011 2.95596 34.9747 2.66911 32.865C2.54617 31.8509 2.62772 30.8367 3.03833 29.7006C3.16086 29.2945 3.36657 28.8892 3.57147 28.4024C3.85873 27.753 4.18615 27.0628 4.51481 26.3733L4.5562 26.2926C7.38621 20.2468 10.4215 14.0798 13.5802 8.0753L13.7031 7.83129C14.0318 7.22331 14.36 6.57397 14.6879 5.96517C15.0161 5.31584 15.3849 4.70704 15.8365 4.17931C16.6979 3.20653 17.8461 2.67839 19.1181 2.67839C20.3901 2.67839 21.5383 3.20653 22.3997 4.17931C22.8513 4.70826 23.2201 5.31706 23.5483 5.96517C23.877 6.57397 24.2052 7.22331 24.5326 7.83129L24.656 8.0753C27.7665 14.1047 30.7615 20.1918 33.6394 26.3332V26.3737C33.9681 27.0238 34.2549 27.7534 34.5832 28.4036C34.7881 28.8896 34.9934 29.2949 35.1163 29.701C35.4437 30.7549 35.5667 31.7698 35.4023 32.8245Z" fill="#ED5050"/>
</svg>
