<svg width="152" height="34" viewBox="0 0 152 34" fill="none" xmlns="http://www.w3.org/2000/svg">
<g clip-path="url(#clip0_2003_7842)">
<path d="M143.945 27.4856C143.945 25.195 145.751 23.3367 147.974 23.3367C150.198 23.3367 152.002 25.195 152.002 27.4856C152.002 29.7761 150.198 31.6334 147.974 31.6334C145.751 31.6334 143.945 29.7761 143.945 27.4856Z" fill="#86BC24"/>
<path d="M15.4619 16.4991C15.4619 13.8712 14.9689 11.9215 13.9828 10.6513C12.9953 9.3825 11.4998 8.74862 9.4888 8.74862H7.34992V24.8186H8.98656C11.22 24.8186 12.8566 24.1365 13.8989 22.768C14.9397 21.402 15.4621 19.3119 15.4621 16.4991H15.4619ZM23.0903 16.2252C23.0903 21.0129 21.8408 24.7021 19.3414 27.2915C16.8422 29.8821 13.3288 31.1775 8.79987 31.1775H0V2.48925H9.41433C13.781 2.48925 17.1522 3.66705 19.5279 6.02123C21.9025 8.37664 23.0903 11.7764 23.0903 16.2255V16.2252ZM47.4661 31.1773H54.4684V2.36874H47.4661V31.1773ZM64.3056 20.4315C64.3056 22.2683 64.5386 23.6693 65.0039 24.632C65.4701 25.5961 66.2511 26.0775 67.3491 26.0775C68.4356 26.0775 69.2038 25.5961 69.6515 24.632C70.099 23.6693 70.3217 22.2683 70.3217 20.4315C70.3217 18.6043 70.0956 17.2261 69.6422 16.2959C69.1875 15.3628 68.4122 14.896 67.313 14.896C66.2382 14.896 65.4701 15.3607 65.0038 16.2849C64.5387 17.2106 64.3054 18.5923 64.3054 20.4315H64.3056ZM77.4487 20.4315C77.4487 23.931 76.5582 26.661 74.7723 28.6178C72.9877 30.5757 70.4895 31.5554 67.278 31.5554C64.1983 31.5554 61.7468 30.5542 59.9271 28.5517C58.1051 26.5493 57.1947 23.8433 57.1947 20.4317C57.1947 16.9428 58.0866 14.232 59.8723 12.2993C61.6581 10.3664 64.1621 9.40017 67.3863 9.40017C69.3786 9.40017 71.1412 9.84796 72.6682 10.7423C74.1964 11.6365 75.3763 12.9176 76.205 14.5864C77.035 16.2526 77.4487 18.2023 77.4487 20.4315ZM80.2297 31.1773H87.2332V9.77833H80.2297V31.1773ZM80.2294 7.18983H87.233V2.36768H80.2294V7.18983ZM101.422 25.7193C102.368 25.7193 103.493 25.4719 104.807 24.981V30.3653C103.863 30.7926 102.965 31.0986 102.112 31.2799C101.259 31.4637 100.257 31.5549 99.1116 31.5549C96.7603 31.5549 95.0655 30.9463 94.0244 29.7312C92.988 28.5165 92.4682 26.6509 92.4682 24.1335V15.3119H90.0155V9.78028H92.4682V4.31541L99.5254 3.05138V9.7801H103.994V15.3121H99.5254V23.6412C99.5254 25.0266 100.158 25.7193 101.422 25.7193ZM117.631 25.7193C118.576 25.7193 119.702 25.4719 121.016 24.981V30.3653C120.073 30.7926 119.174 31.0986 118.321 31.2799C117.466 31.4637 116.469 31.5549 115.32 31.5549C112.969 31.5549 111.274 30.9463 110.235 29.7312C109.197 28.5165 108.677 26.6509 108.677 24.1335V15.3119H106.223V9.78028H108.677V4.23271L115.733 3.05138V9.7801H120.204V15.3121H115.733V23.6412C115.733 25.0266 116.366 25.7193 117.631 25.7193H117.631ZM129.853 17.8246C129.948 16.653 130.274 15.7945 130.828 15.246C131.386 14.6986 132.073 14.4248 132.896 14.4248C133.794 14.4248 134.507 14.7321 135.037 15.3515C135.569 15.9674 135.847 16.7923 135.869 17.8246H129.853ZM139.729 11.9229C138.064 10.2424 135.702 9.4007 132.647 9.4007C129.435 9.4007 126.964 10.3671 125.232 12.2999C123.501 14.2328 122.635 17.0057 122.635 20.6195C122.635 24.1188 123.571 26.8176 125.438 28.7119C127.307 30.6063 129.931 31.5547 133.31 31.5547C134.933 31.5547 136.329 31.4408 137.5 31.2139C138.663 30.9894 139.789 30.5835 140.882 29.9977L139.806 25.1752C139.012 25.5092 138.256 25.766 137.543 25.9351C136.513 26.1814 135.382 26.3049 134.151 26.3049C132.801 26.3049 131.735 25.9653 130.954 25.2858C130.173 24.6051 129.757 23.6662 129.709 22.4706H142.227V19.1848C142.227 16.0239 141.394 13.6024 139.729 11.9229ZM32.3843 17.8246C32.4799 16.653 32.8053 15.7945 33.36 15.246C33.916 14.6986 34.6049 14.4248 35.4292 14.4248C36.3244 14.4248 37.0379 14.7321 37.5683 15.3515C38.1009 15.9674 38.3772 16.7923 38.4017 17.8246H32.3843ZM42.2613 11.9229C40.5955 10.2424 38.2349 9.4007 35.1785 9.4007C31.9658 9.4007 29.4958 10.3671 27.7646 12.2999C26.0336 14.2328 25.1664 17.0057 25.1664 20.6195C25.1664 24.1188 26.1012 26.8176 27.971 28.7119C29.8384 30.6063 32.4624 31.5547 35.8419 31.5547C37.4645 31.5547 38.861 31.4408 40.0313 31.2139C41.1947 30.9894 42.3208 30.5835 43.4142 29.9977L42.3371 25.1752C41.5432 25.5092 40.7878 25.766 40.0756 25.9351C39.0429 26.1814 37.9133 26.3049 36.6822 26.3049C35.3335 26.3049 34.267 25.9653 33.486 25.2858C32.7037 24.6051 32.2888 23.6662 32.2411 22.4706H44.7583V19.1848C44.7583 16.0239 43.9261 13.6024 42.2613 11.9229Z" fill="#434A57"/>
</g>
<defs>
<clipPath id="clip0_2003_7842">
<rect width="152" height="34" fill="white"/>
</clipPath>
</defs>
</svg>
