<svg width="182" height="36" viewBox="0 0 182 36" fill="none" xmlns="http://www.w3.org/2000/svg">
<path d="M47.8686 28.1241C48.28 28.4874 48.5385 28.9876 48.5937 29.5273H47.7597C47.5794 28.7436 47.043 28.2472 46.0329 28.2472C44.8048 28.2472 43.9792 29.0842 43.9792 30.8403C43.9792 32.2805 44.6623 33.2652 46.0077 33.2652C46.9591 33.2652 47.5752 32.7524 47.81 31.583H48.644C48.4806 33.0149 47.4537 34.0038 45.9113 34.0038C44.2306 34.0038 43.1116 32.8057 43.1116 30.6967C43.1116 28.797 44.2474 27.5127 46.0287 27.5127C46.8166 27.5086 47.4327 27.7138 47.8686 28.1241ZM49.7086 27.6522H50.4798V29.9581C50.9869 29.3304 51.3138 29.2401 51.9006 29.2401C52.9233 29.2401 53.443 29.7038 53.443 30.9593V33.8397H52.6718V31.0085C52.6718 30.1633 52.3826 29.913 51.7455 29.913C51.1085 29.913 50.4756 30.2577 50.4756 31.4558V33.8397H49.7044V27.6522H49.7086ZM55.2242 32.658C55.2242 32.219 55.4841 31.9851 56.2343 31.8784C56.2343 31.8784 56.8463 31.7922 57.1354 31.7225C57.2645 31.6873 57.3874 31.6333 57.5001 31.5625V32.1656C57.5089 32.3769 57.4514 32.5858 57.3352 32.764C57.2191 32.9423 57.0499 33.0814 56.8504 33.1627C56.381 33.3801 55.8362 33.4335 55.4715 33.1586C55.3915 33.1014 55.3271 33.0258 55.284 32.9385C55.2409 32.8512 55.2203 32.7549 55.2242 32.658ZM55.8823 31.2793C55.0147 31.3819 54.4405 31.8374 54.4405 32.6703C54.4405 33.4335 55.0398 33.9997 55.8907 33.9997C56.2062 34.0009 56.518 33.9334 56.8036 33.8021C57.0892 33.6708 57.3414 33.479 57.542 33.2406C57.6132 33.7535 57.8438 33.934 58.2503 33.934C58.3593 33.934 58.4473 33.9299 58.5102 33.9217C58.573 33.9135 58.6611 33.8889 58.7826 33.8561V33.3022L58.6443 33.3227L58.5311 33.3268C58.4305 33.3268 58.3593 33.3022 58.3258 33.2529C58.2922 33.2037 58.2755 33.1463 58.2755 33.0683V30.4998C58.2755 29.6422 57.5294 29.2401 56.4607 29.2401C55.5386 29.2401 54.7129 29.6135 54.6878 30.7295H55.4087C55.4883 30.0935 55.8194 29.8966 56.4439 29.8966C57.1271 29.8966 57.521 30.1141 57.521 30.6229C57.521 30.7459 57.5043 30.8444 57.4707 30.9101C57.4121 31.0291 57.2947 31.107 57.1187 31.1275L55.8823 31.2793ZM59.6292 29.3345H60.3837V29.9746C60.874 29.3755 61.2345 29.236 61.7374 29.236C62.3116 29.236 62.6804 29.4083 62.9613 29.9458C63.1123 29.7214 63.3194 29.5384 63.5629 29.4142C63.8064 29.29 64.0783 29.2287 64.3527 29.236C65.3083 29.236 65.7987 29.7038 65.7987 30.8444V33.8356H65.0024V30.7131C65.0024 29.6956 63.9546 29.7448 63.4139 30.2248C63.1918 30.4259 63.087 30.7583 63.087 31.2219V33.8397H62.3116V30.8978C62.3116 30.1264 62.0769 29.913 61.5488 29.913C60.9579 29.913 60.3962 30.2946 60.3962 31.4558V33.8397H59.6292V29.3345ZM69.0427 33.3432C68.2338 33.3432 67.7896 32.7565 67.7896 31.7553C67.7896 30.5121 68.2255 29.8966 69.0427 29.8966C69.8517 29.8966 70.2959 30.5285 70.2959 31.5666C70.2959 32.7524 69.7636 33.3432 69.0427 33.3432ZM67.0393 35.6368H67.8105V33.3473C68.2757 33.9012 68.5943 33.9997 69.1391 33.9997C70.275 33.9997 71.0839 33.1052 71.0839 31.5009C71.0839 30.0566 70.2624 29.2401 69.2188 29.2401C68.9382 29.2323 68.6602 29.2945 68.4109 29.4209C68.1616 29.5472 67.9493 29.7335 67.7938 29.9623V29.3673H67.0393V35.6368ZM72.0646 29.3673H72.8358V33.8397H72.0646V29.3673ZM72.0646 27.685H72.8358V28.5508H72.0646V27.685ZM75.887 33.3432C74.9566 33.3432 74.55 32.6252 74.55 31.6691C74.55 30.6762 74.9566 29.8679 75.8954 29.8679C76.7546 29.8679 77.2198 30.4341 77.2198 31.5091C77.2198 32.4405 76.9055 33.3432 75.887 33.3432ZM75.9122 29.2073C74.6045 29.2073 73.7621 30.1756 73.7621 31.6856C73.7621 33.1134 74.5626 33.9997 75.8074 33.9997C77.2995 33.9997 78.0036 32.9452 78.0036 31.4927C78.0078 29.991 77.0815 29.2073 75.9122 29.2073ZM78.9634 29.3345H79.7178V29.9705C79.8857 29.7394 80.1085 29.5518 80.367 29.4239C80.6255 29.2959 80.9119 29.2314 81.2015 29.236C82.199 29.236 82.6936 29.6627 82.6936 30.9511V33.8356H81.9224V31.0003C81.9224 30.2659 81.6332 29.913 81.0464 29.913C80.5477 29.913 80.292 30.0484 80.0363 30.3397C79.7765 30.6393 79.7304 30.8978 79.7304 31.4804V33.8397H78.9592V29.3345H78.9634ZM85.9585 27.6686H86.8094V33.8397H85.9585V27.6686ZM88.1967 29.3345H88.9511V29.9705C89.119 29.7394 89.3418 29.5518 89.6003 29.4239C89.8588 29.2959 90.1452 29.2314 90.4348 29.236C91.4239 29.236 91.9269 29.6586 91.9269 30.9511V33.8356H91.1557V31.0003C91.1557 30.2659 90.8665 29.913 90.2797 29.913C89.781 29.913 89.5253 30.0484 89.2696 30.3397C89.0098 30.6393 88.9637 30.8978 88.9637 31.4804V33.8397H88.1925V29.3345H88.1967ZM93.3016 28.0871H94.0728V29.3345H94.8104V29.9581H94.0728V32.8837C94.0728 33.0396 94.1315 33.1422 94.2362 33.1996C94.3316 33.2384 94.4349 33.2553 94.538 33.2488L94.6554 33.2447C94.7059 33.2442 94.7563 33.2401 94.8062 33.2324V33.8397C94.617 33.8852 94.4227 33.9073 94.2278 33.9053C93.507 33.9053 93.3016 33.5073 93.3016 32.9329V29.9623H92.6813V29.3345H93.3016V28.0871ZM96.2606 31.2424C96.2941 30.4587 96.8222 29.8966 97.5222 29.8966C98.2682 29.8966 98.6999 30.2823 98.7837 31.2424H96.2606ZM97.5641 29.2401C96.2857 29.2401 95.4098 30.2331 95.4098 31.6773C95.4098 33.1421 96.3067 33.9997 97.4425 33.9997C98.3478 33.9997 98.9053 33.733 99.3034 32.9903C99.4038 32.8223 99.4706 32.6371 99.5004 32.4446H98.746C98.6776 32.7111 98.5171 32.9462 98.2917 33.11C98.0663 33.2738 97.79 33.3562 97.5096 33.3432C96.6588 33.3432 96.2732 32.7524 96.2396 31.8374H99.5633C99.5633 31.3901 99.5423 31.0619 99.4962 30.8526C99.4602 30.5587 99.3501 30.2782 99.176 30.0361C99.0019 29.7941 98.7692 29.5981 98.4987 29.4658C98.2097 29.3196 97.8894 29.2422 97.5641 29.2401ZM100.632 29.3345H101.386V30.1141C101.508 29.8063 102.032 29.236 102.644 29.236L102.719 29.2401L102.895 29.2524V30.0525C102.854 30.0448 102.812 30.0406 102.77 30.0402L102.64 30.0361C101.848 30.0361 101.407 30.6064 101.407 31.2465V33.8356H100.636V29.3345H100.632ZM103.679 29.3345H104.433V29.9705C104.602 29.7399 104.825 29.5527 105.083 29.4248C105.342 29.2969 105.628 29.2321 105.917 29.236C106.915 29.236 107.409 29.6627 107.409 30.9511V33.8356H106.638V31.0003C106.638 30.2618 106.341 29.913 105.766 29.913C105.255 29.913 105.004 30.0484 104.756 30.3397C104.492 30.6393 104.446 30.8937 104.446 31.4804V33.8397H103.675V29.3345H103.679ZM109.195 32.658C109.195 32.219 109.455 31.9851 110.205 31.8784C110.205 31.8784 110.817 31.7922 111.106 31.7225C111.235 31.6873 111.358 31.6333 111.471 31.5625V32.1656C111.479 32.3769 111.422 32.5858 111.306 32.764C111.19 32.9423 111.02 33.0814 110.821 33.1627C110.352 33.3801 109.807 33.4335 109.442 33.1586C109.362 33.1014 109.298 33.0258 109.254 32.9385C109.211 32.8512 109.191 32.7549 109.195 32.658ZM109.853 31.2793C108.985 31.3819 108.407 31.8374 108.407 32.6703C108.407 33.4335 109.006 33.9997 109.857 33.9997C110.172 34.0009 110.484 33.9334 110.77 33.8021C111.055 33.6708 111.308 33.479 111.508 33.2406C111.592 33.7535 111.81 33.934 112.217 33.934C112.326 33.934 112.414 33.9299 112.476 33.9217C112.539 33.9135 112.632 33.8889 112.749 33.8561V33.3022L112.611 33.3227L112.497 33.3268C112.397 33.3268 112.326 33.3022 112.292 33.2529C112.259 33.2037 112.242 33.1463 112.242 33.0683V30.4998C112.242 29.6463 111.5 29.2401 110.427 29.2401C109.505 29.2401 108.679 29.6135 108.654 30.7295H109.375C109.459 30.0812 109.794 29.8966 110.41 29.8966C111.093 29.8966 111.487 30.1141 111.487 30.6229C111.487 30.7459 111.471 30.8444 111.437 30.9101C111.378 31.0291 111.261 31.107 111.081 31.1275L109.853 31.2793ZM113.742 28.0871H114.518V29.3345H115.255V29.9581H114.518V32.8837C114.518 33.0396 114.572 33.1422 114.681 33.1996C114.776 33.2351 114.877 33.2505 114.979 33.2447L115.1 33.2406L115.251 33.2283V33.8356C115.06 33.8815 114.865 33.9035 114.668 33.9012C113.948 33.9012 113.742 33.5032 113.742 32.9288V29.9623H113.126V29.3345H113.742V28.0871ZM116.202 29.3673H116.974V33.8397H116.202V29.3673ZM116.202 27.685H116.974V28.5508H116.202V27.685ZM120.025 33.3432C119.094 33.3432 118.688 32.6252 118.688 31.6691C118.688 30.6762 119.094 29.8679 120.033 29.8679C120.892 29.8679 121.358 30.4341 121.358 31.5091C121.362 32.4405 121.043 33.3432 120.025 33.3432ZM120.05 29.2073C118.742 29.2073 117.9 30.1756 117.9 31.6856C117.9 33.1134 118.7 33.9997 119.945 33.9997C121.437 33.9997 122.141 32.9452 122.141 31.4927C122.146 29.991 121.219 29.2073 120.05 29.2073ZM123.189 29.3345H123.944V29.9705C124.112 29.7399 124.335 29.5527 124.593 29.4248C124.852 29.2969 125.138 29.2321 125.427 29.236C126.421 29.236 126.919 29.6545 126.919 30.9511V33.8356H126.152V31.0003C126.152 30.2618 125.855 29.913 125.281 29.913C124.761 29.913 124.518 30.0525 124.271 30.3397C124.007 30.6393 123.96 30.8937 123.96 31.4804V33.8397H123.189V29.3345ZM128.705 32.658C128.705 32.219 128.965 31.9851 129.715 31.8784C129.715 31.8784 130.327 31.7922 130.616 31.7225C130.745 31.6873 130.868 31.6333 130.981 31.5625V32.1656C130.99 32.3769 130.932 32.5858 130.816 32.764C130.7 32.9423 130.531 33.0814 130.331 33.1627C129.87 33.3801 129.317 33.4335 128.952 33.1586C128.872 33.1014 128.808 33.0258 128.765 32.9385C128.722 32.8512 128.701 32.7549 128.705 32.658ZM129.367 31.2793C128.5 31.3819 127.921 31.8374 127.921 32.6703C127.921 33.4335 128.521 33.9997 129.371 33.9997C130.084 33.9997 130.708 33.6509 131.023 33.2406C131.094 33.7535 131.324 33.934 131.735 33.934C131.84 33.934 131.928 33.9299 131.991 33.9217C132.054 33.9135 132.146 33.8889 132.263 33.8561V33.3022L132.129 33.3227L132.012 33.3268C131.911 33.3268 131.84 33.3022 131.806 33.2529C131.773 33.2037 131.756 33.1463 131.756 33.0683V30.4998C131.756 29.6463 131.014 29.2401 129.941 29.2401C129.019 29.2401 128.194 29.6135 128.168 30.7295H128.889C128.965 30.0894 129.3 29.8966 129.925 29.8966C130.608 29.8966 131.002 30.1141 131.002 30.6229C131.002 30.7459 130.985 30.8444 130.956 30.9101C130.893 31.0291 130.775 31.107 130.599 31.1275L129.367 31.2793ZM133.11 27.685H133.881V33.8397H133.11V27.685ZM141.471 28.1241C141.883 28.4874 142.141 28.9876 142.197 29.5273H141.362C141.182 28.7436 140.646 28.2472 139.636 28.2472C138.408 28.2472 137.582 29.0883 137.582 30.8403C137.582 32.2805 138.265 33.2652 139.611 33.2652C140.562 33.2652 141.178 32.7524 141.413 31.583H142.247C142.083 33.0149 141.056 34.0038 139.514 34.0038C137.833 34.0038 136.714 32.8057 136.714 30.6967C136.714 28.797 137.85 27.5127 139.631 27.5127C140.419 27.5086 141.036 27.7138 141.471 28.1241ZM145.017 33.3432C144.087 33.3432 143.684 32.6252 143.684 31.6691C143.684 30.6762 144.095 29.8679 145.026 29.8679C145.893 29.8679 146.35 30.4341 146.35 31.5091C146.35 32.4405 146.04 33.3432 145.017 33.3432ZM145.042 29.2073C143.735 29.2073 142.896 30.1756 142.896 31.6856C142.896 33.1093 143.689 33.9997 144.938 33.9997C146.434 33.9997 147.134 32.9411 147.134 31.4927C147.138 29.991 146.212 29.2073 145.042 29.2073ZM148.094 29.3345H148.848V30.1141C148.97 29.8063 149.493 29.236 150.105 29.236L150.181 29.2401L150.357 29.2524V30.0525C150.314 30.0445 150.271 30.0404 150.227 30.0402L150.101 30.0361C149.309 30.0361 148.869 30.6064 148.869 31.2465V33.8356H148.098V29.3345H148.094ZM153.081 33.3432C152.264 33.3432 151.828 32.7565 151.828 31.7553C151.828 30.5121 152.264 29.8966 153.081 29.8966C153.886 29.8966 154.334 30.5326 154.334 31.5666C154.334 32.7565 153.798 33.3432 153.081 33.3432ZM151.074 35.6368H151.845V33.3473C152.297 33.9012 152.624 33.9997 153.173 33.9997C154.309 33.9997 155.118 33.1052 155.118 31.5009C155.118 30.0525 154.297 29.2401 153.249 29.2401C152.969 29.2327 152.692 29.295 152.443 29.4214C152.194 29.5477 151.983 29.7338 151.828 29.9623V29.3673H151.074V35.6368ZM157.893 33.3432C156.962 33.3432 156.56 32.6252 156.56 31.6691C156.56 30.6762 156.971 29.8679 157.901 29.8679C158.773 29.8679 159.225 30.4382 159.225 31.5091C159.23 32.4405 158.915 33.3432 157.893 33.3432ZM157.918 29.2073C156.61 29.2073 155.772 30.1756 155.772 31.6856C155.772 33.1134 156.568 33.9997 157.813 33.9997C159.305 33.9997 160.009 32.9452 160.009 31.4927C160.013 29.991 159.087 29.2073 157.918 29.2073ZM160.881 29.3345H161.635V30.1141C161.757 29.8104 162.277 29.236 162.893 29.236L162.968 29.2401C163.028 29.2417 163.089 29.2458 163.148 29.2524V30.0525C163.106 30.0447 163.062 30.0406 163.019 30.0402L162.889 30.0361C162.101 30.0361 161.661 30.6064 161.661 31.2465V33.8356H160.885V29.3345H160.881ZM164.351 32.658C164.351 32.2231 164.594 31.9851 165.366 31.8784C165.366 31.8784 165.973 31.7922 166.267 31.7225C166.394 31.6873 166.516 31.6333 166.627 31.5625V32.1656C166.637 32.3765 166.58 32.5853 166.465 32.7636C166.349 32.942 166.181 33.0813 165.982 33.1627C165.512 33.3801 164.967 33.4335 164.603 33.1586C164.521 33.1024 164.456 33.0271 164.412 32.9397C164.368 32.8522 164.347 32.7554 164.351 32.658ZM165.014 31.2793C164.154 31.3819 163.568 31.8374 163.568 32.6703C163.568 33.4335 164.167 33.9997 165.018 33.9997C165.334 34.0009 165.646 33.9334 165.933 33.8022C166.219 33.6709 166.472 33.4791 166.673 33.2406C166.745 33.7576 166.971 33.934 167.382 33.934C167.467 33.9351 167.552 33.931 167.637 33.9217C167.704 33.9135 167.792 33.8889 167.91 33.8561V33.3022L167.776 33.3227L167.662 33.3268C167.558 33.3268 167.486 33.3022 167.453 33.2529C167.419 33.2037 167.403 33.1463 167.403 33.0683V30.4998C167.403 29.6463 166.657 29.2401 165.592 29.2401C164.661 29.2401 163.848 29.6135 163.815 30.7295H164.536C164.615 30.0894 164.951 29.8966 165.571 29.8966C166.271 29.8966 166.648 30.1223 166.648 30.6229C166.648 30.7459 166.636 30.8444 166.602 30.9101C166.539 31.0291 166.422 31.107 166.246 31.1275L165.014 31.2793ZM168.819 28.0871H169.586V29.3345H170.328V29.9581H169.586V32.8837C169.586 33.0396 169.645 33.1422 169.754 33.1996C169.849 33.2351 169.95 33.2505 170.051 33.2447L170.173 33.2406C170.224 33.24 170.274 33.2358 170.324 33.2283V33.8356C170.233 33.8606 170.141 33.8771 170.047 33.8848C169.946 33.9002 169.844 33.9071 169.741 33.9053C169.025 33.9053 168.819 33.5114 168.819 32.9329V29.9623H168.191V29.3345H168.815V28.0871H168.819ZM171.275 29.3673H172.046V33.8397H171.275V29.3673ZM171.275 27.685H172.046V28.5508H171.275V27.685ZM175.01 33.3432C174.075 33.3432 173.673 32.6293 173.673 31.6691C173.673 30.6721 174.079 29.8679 175.018 29.8679C175.877 29.8679 176.338 30.4341 176.338 31.5091C176.342 32.4405 176.024 33.3432 175.01 33.3432ZM175.031 29.2073C173.727 29.2073 172.885 30.1756 172.885 31.6856C172.885 33.1093 173.673 33.9997 174.93 33.9997C176.43 33.9997 177.122 32.937 177.122 31.4927C177.126 29.991 176.204 29.2073 175.031 29.2073ZM178.086 29.3345H178.84V29.9705C179.009 29.7397 179.231 29.5522 179.49 29.4243C179.748 29.2964 180.035 29.2318 180.324 29.236C181.317 29.236 181.816 29.6586 181.816 30.9511V33.8356H181.045V31.0003C181.045 30.2618 180.747 29.913 180.173 29.913C179.654 29.913 179.41 30.0525 179.163 30.3397C178.903 30.6393 178.857 30.8978 178.857 31.4804V33.8397H178.082V29.3345H178.086ZM62.4122 8.50309H56.3601C56.0164 6.98904 55.547 5.78274 53.7908 5.16727C52.7682 4.8103 51.142 4.85954 50.0187 5.70888C48.2626 7.04238 47.9776 10.0171 48.1327 11.404C48.2626 12.7662 48.7614 14.7398 50.6223 15.6384C51.7539 16.2292 53.4555 16.2784 54.5536 15.6096C55.811 14.9203 56.1002 13.7632 56.3894 12.5569H62.4415C62.6553 14.9449 60.5848 18.6911 56.9888 20.2584C53.8453 21.6166 49.2308 21.3088 46.167 19.2286C42.6799 16.898 41.7327 12.6882 41.9464 9.86531C42.1266 6.48026 43.6481 3.01315 47.6088 1.01494C50.4379 -0.425242 55.132 -0.318561 57.7767 1.24472C61.0249 3.14034 62.2026 5.475 62.4122 8.50309ZM69.3068 0.497954V7.14086C70.1995 6.5295 70.6941 6.11509 71.9556 5.72939C73.4226 5.29447 75.4679 5.475 76.8552 6.47616C78.8502 7.93686 79.0556 10.6326 79.0053 12.1466V20.5908H73.3429V14.0464C73.3429 12.6062 73.4477 11.2234 72.3496 10.608C71.7712 10.2715 70.8575 10.2223 70.3336 10.5259C69.181 11.2727 69.2858 12.6349 69.2858 14.2228V20.5867H63.6738V0.497954H69.3068ZM87.4422 10.1443C88.2051 9.78735 89.3576 9.88993 90.1456 10.3987C91.273 11.1209 91.5874 12.2492 91.5329 13.3283C91.5077 14.2515 91.0886 15.585 89.9067 16.2497C89.4968 16.453 89.0438 16.559 88.5844 16.559C88.1249 16.559 87.6719 16.453 87.262 16.2497C86.1304 15.585 85.6316 14.5059 85.5855 13.3283C85.531 12.2 86.055 10.7598 87.4422 10.1443ZM87.6267 5.6022C85.7909 5.32319 83.4354 5.75812 81.7799 7.65375C79.7346 9.93917 79.6046 13.714 80.2082 15.7861C81.0171 18.4079 82.4337 20.0451 85.1077 20.7918C87.2075 21.4073 89.4331 20.8944 91.2982 19.2245V20.5867H96.9815V6.19304H91.3988V7.34601C89.9821 6.14381 89.2277 5.83608 87.6267 5.6022ZM112.682 7.65375C114.991 5.50373 117.581 5.19189 119.652 6.06175C122.825 7.39525 122.854 9.52886 122.854 12.2205V20.5867H117.141V13.7879C117.141 12.0153 117.192 10.9403 116.328 10.3741C116.03 10.2139 115.695 10.1319 115.355 10.1362C115.015 10.1405 114.681 10.231 114.388 10.3987C113.42 11.0429 113.47 12.04 113.47 13.7879V20.5867H107.833V13.5868C107.833 12.6103 107.963 10.9198 106.864 10.2715C106.595 10.1156 106.287 10.0334 105.974 10.0334C105.66 10.0334 105.353 10.1156 105.083 10.2715C104.035 10.9157 104.136 12.5816 104.136 13.6853V20.5908H98.5532V6.19304H104.056V7.45269C106.072 5.55296 107.883 5.24523 109.823 5.70888C110.875 5.96327 111.584 6.37358 112.682 7.65375ZM132.129 10.0664C132.626 9.95858 133.142 9.9726 133.632 10.1072C134.122 10.2417 134.57 10.4927 134.937 10.8377C135.88 11.7609 136.01 13.2996 135.725 14.272C135.604 14.8037 135.338 15.293 134.953 15.6871C134.569 16.0811 134.083 16.3651 133.546 16.5082C133.072 16.645 132.57 16.6551 132.09 16.5375C131.611 16.4199 131.173 16.1788 130.822 15.8394C129.853 14.8383 129.694 13.4022 129.983 12.2984C130.293 11.1947 130.951 10.3741 132.129 10.0664ZM134.439 21.0503C136.04 21.075 138.5 20.1764 139.942 18.252C141.668 15.9174 141.777 12.401 140.964 10.1197C140.201 7.88762 138.785 6.42692 136.559 5.78274C134.514 5.21651 132.364 5.475 130.059 7.26805V6.18894H124.476V26.1505H130.063V19.5076C131.635 20.64 132.758 21.0257 134.439 21.0503ZM142.301 0.497954H147.938V5.19599H142.301V0.497954ZM142.301 6.19304H147.938V20.5908H142.301V6.19304ZM156.505 9.81197C156.944 9.70568 157.403 9.7062 157.841 9.81349C158.279 9.92078 158.684 10.1316 159.02 10.4274C159.967 11.3014 160.097 12.9672 159.913 13.993C159.703 14.9942 159.205 15.8928 158.077 16.3277C157.666 16.4608 157.229 16.4974 156.801 16.4347C156.373 16.372 155.966 16.2116 155.613 15.9666C154.485 15.1214 154.305 13.6607 154.38 12.7088C154.489 11.4286 154.959 10.2223 156.505 9.81197ZM152.888 6.50078C150.11 7.96148 149.032 10.5054 148.877 12.5569C148.668 14.7931 149.192 17.2796 151.841 19.3106C154.196 21.157 157.893 21.4401 160.282 20.6441C161.5 20.2367 162.597 19.5406 163.475 18.6178C164.352 17.6951 164.983 16.5743 165.311 15.3552C165.89 13.2257 165.835 10.4028 163.685 8.09278C161.3 5.55296 157.478 5.32319 155.613 5.63092C154.883 5.7294 153.752 6.04123 152.888 6.50078ZM181.64 20.5908H176.137V14.2269C176.137 12.5857 176.112 10.9157 175.06 10.3536C174.764 10.1915 174.432 10.104 174.093 10.099C173.755 10.094 173.42 10.1716 173.119 10.3249C171.862 11.0716 172.017 12.918 172.017 14.0997V20.5908H166.569V6.19304H171.992V7.37473C174.037 5.55296 176.736 5.0688 178.677 5.93455C181.695 7.32139 181.64 9.65605 181.64 12.1466V20.5908Z" fill="#434A57"/>
<path d="M1.54729 24.9276C-0.66149 20.525 -0.481267 14.1816 1.93288 9.90211C4.5063 4.8471 10.0555 1.01892 16.2292 0.690668C17.8512 0.592194 19.5989 0.66605 21.2922 0.641431V3.60386C21.2922 3.60386 18.6643 3.59566 17.4111 3.60386C15.3029 3.61207 13.2911 3.98135 11.4973 4.8471C8.77325 6.07002 6.50268 8.08842 4.9973 10.6252C3.49192 13.162 2.82554 16.0927 3.08966 19.0151C3.65548 24.8538 7.54075 29.6626 13.2702 31.4474C19.1588 33.2077 25.5086 31.0412 28.9538 26.5853C30.6219 24.4229 31.7703 21.8831 31.9212 18.9617L32.0092 17.5051V0.641431H35.0478L34.9933 18.1329C34.8131 25.2764 30.4961 31.3408 23.8111 33.8888C17.6919 36.2522 10.2106 34.7956 5.60859 30.4668C3.89486 28.9007 2.51459 27.0182 1.54729 24.9276Z" fill="#3F7FCA"/>
<path d="M5.79103 23.3204C3.68284 19.2419 4.37439 13.4278 7.20347 10.0304C8.39029 8.52453 9.90801 7.29932 11.6442 6.44558C13.3804 5.59184 15.2905 5.13146 17.2331 5.09854H21.2944V8.07328C18.6958 8.14303 15.9967 7.79016 13.7879 8.7708C12.0902 9.43855 10.6148 10.554 9.52565 11.9933C8.43654 13.4325 7.77634 15.1392 7.6184 16.9236C7.43132 18.9183 7.87293 20.9212 8.88379 22.6627C9.89465 24.4042 11.4262 25.8008 13.2724 26.6644C16.6379 28.3508 21.2692 27.6737 24.0187 25.2529C26.0724 23.4927 27.3088 21.0103 27.4136 18.2572L27.4555 0.642578H30.49L30.448 18.2859C30.2972 23.4188 27.1831 27.645 22.5308 29.6104C17.7989 31.6209 11.8851 30.39 8.41474 26.9188C7.25796 25.8602 6.51192 24.6785 5.79103 23.3204Z" fill="#3F7FCA"/>
<path d="M10.3112 22.1838C8.82335 19.7712 8.64313 16.1728 10.1604 13.7314C11.3381 11.5158 13.9786 9.58732 16.7909 9.5627C18.2872 9.55039 19.7415 9.5586 21.2881 9.5627V12.5333C21.2881 12.5333 18.8153 12.5169 17.6962 12.5333C16.5562 12.5785 15.479 12.6975 14.6073 13.354C12.8847 14.4823 11.7782 16.4477 12.1931 18.7126C12.5242 20.7518 14.0414 22.4628 16.1748 23.0167C17.2206 23.275 18.3212 23.2237 19.3374 22.8695C20.3535 22.5153 21.2395 21.874 21.8832 21.0267C22.9352 19.722 22.8849 17.7361 22.8849 15.865V0.642578H25.932L25.8901 17.6827C25.8649 20.9775 24.3225 23.7471 21.3426 25.2529C18.853 26.6193 15.2485 26.3649 12.935 24.8303C11.8811 24.1374 10.9873 23.2358 10.3112 22.1838Z" fill="#3F7FCA"/>
</svg>
