<svg width="14" height="14" viewBox="0 0 14 14" fill="none" xmlns="http://www.w3.org/2000/svg">
<path fill-rule="evenodd" clip-rule="evenodd" d="M5.10419 3.50008C5.10419 2.45304 5.95298 1.60425 7.00002 1.60425C8.04706 1.60425 8.89585 2.45304 8.89585 3.50008C8.89585 4.54712 8.04706 5.39592 7.00002 5.39592C5.95298 5.39592 5.10419 4.54712 5.10419 3.50008ZM7.00002 0.729248C5.46973 0.729248 4.22919 1.96979 4.22919 3.50008C4.22919 5.03037 5.46973 6.27092 7.00002 6.27092C8.53031 6.27092 9.77085 5.03037 9.77085 3.50008C9.77085 1.96979 8.53031 0.729248 7.00002 0.729248ZM2.91669 11.7397C2.91669 9.92748 4.38575 8.45842 6.19794 8.45842H7.8021C9.61429 8.45842 11.0834 9.92748 11.0834 11.7397C11.0834 12.0216 10.8548 12.2501 10.5729 12.2501H3.4271C3.14521 12.2501 2.91669 12.0216 2.91669 11.7397ZM2.04169 11.7397C2.04169 9.44423 3.9025 7.58342 6.19794 7.58342H7.8021C10.0975 7.58342 11.9584 9.44423 11.9584 11.7397C11.9584 12.5048 11.3381 13.1251 10.5729 13.1251H3.4271C2.66196 13.1251 2.04169 12.5048 2.04169 11.7397Z" fill="white"/>
</svg>
