<svg width="16" height="16" viewBox="0 0 16 16" fill="none" xmlns="http://www.w3.org/2000/svg">
<g clip-path="url(#clip0_2004_13817)">
<path fill-rule="evenodd" clip-rule="evenodd" d="M4.17952 0.833255C4.61696 0.832475 5.04027 0.988134 5.37301 1.27213C5.70588 1.55625 5.92613 1.95007 5.99397 2.38242L5.99525 2.39059L6.3682 5.05504C6.42086 5.40973 6.36835 5.77209 6.21714 6.09727C6.06557 6.42323 5.82152 6.69744 5.51533 6.88579C5.51533 6.88579 5.51534 6.88578 5.51533 6.88579L3.08208 8.38271C3.58431 9.33608 4.2304 10.2176 5.00635 10.9936C5.7817 11.7689 6.66246 12.4146 7.61496 12.9167L9.09412 10.4713C9.28247 10.1651 9.5567 9.92103 9.88266 9.76946C10.2079 9.61825 10.5702 9.56574 10.9249 9.6184L13.5893 9.99142C14.0298 10.0537 14.4333 10.2741 14.7234 10.6114C15.0129 10.948 15.1704 11.3783 15.1667 11.8222V13.3333C15.1667 13.8195 14.9735 14.2858 14.6297 14.6296C14.2859 14.9734 13.8196 15.1666 13.3333 15.1666H12.6667C9.52828 15.1666 6.51843 13.9199 4.29925 11.7007C2.08007 9.4815 0.833344 6.47165 0.833344 3.33325V2.66659C0.833344 2.18036 1.0265 1.71404 1.37031 1.37023C1.71413 1.02641 2.18045 0.833255 2.66668 0.833255H4.17952ZM8.52532 13.3438C9.82608 13.8819 11.2317 14.1666 12.6667 14.1666H13.3333C13.5544 14.1666 13.7663 14.0788 13.9226 13.9225C14.0789 13.7662 14.1667 13.5543 14.1667 13.3333V11.815C14.1687 11.6128 14.0971 11.4168 13.9652 11.2634C13.8334 11.1102 13.6504 11.01 13.4502 10.9817C13.4501 10.9817 13.4502 10.9817 13.4502 10.9817L10.7792 10.6078C10.6176 10.5835 10.4525 10.6073 10.3043 10.6762C10.1566 10.7449 10.0323 10.8553 9.94673 10.9939C9.94645 10.9943 9.94617 10.9948 9.94588 10.9952L8.52532 13.3438ZM2.65486 7.47146L4.99135 6.03406C5.13053 5.94844 5.24148 5.82379 5.31038 5.67563C5.37928 5.52746 5.40309 5.36231 5.37887 5.20071L5.37815 5.19592L5.00548 2.53382C4.97399 2.33871 4.87418 2.1611 4.7238 2.03274C4.57249 1.9036 4.37998 1.83284 4.18105 1.83325L4.18001 1.83325H2.66668C2.44566 1.83325 2.2337 1.92105 2.07742 2.07733C1.92114 2.23361 1.83334 2.44557 1.83334 2.66659V3.33325C1.83334 4.76707 2.11758 6.17159 2.65486 7.47146Z" fill="#FF8142"/>
</g>
<defs>
<clipPath id="clip0_2004_13817">
<rect width="16" height="16" fill="white"/>
</clipPath>
</defs>
</svg>
