<svg width="28" height="28" viewBox="0 0 28 28" fill="none" xmlns="http://www.w3.org/2000/svg">
<path d="M21 12.6875C21 12.9471 20.923 13.2008 20.7788 13.4167C20.6346 13.6325 20.4296 13.8008 20.1898 13.9001C19.9499 13.9994 19.686 14.0254 19.4314 13.9748C19.1768 13.9241 18.943 13.7991 18.7594 13.6156C18.5759 13.432 18.4509 13.1982 18.4002 12.9436C18.3496 12.689 18.3756 12.4251 18.4749 12.1852C18.5742 11.9454 18.7425 11.7404 18.9583 11.5962C19.1742 11.452 19.4279 11.375 19.6875 11.375C20.0356 11.375 20.3694 11.5133 20.6156 11.7594C20.8617 12.0056 21 12.3394 21 12.6875ZM16.625 7H12.25C12.0179 7 11.7954 7.09219 11.6313 7.25628C11.4672 7.42038 11.375 7.64294 11.375 7.875C11.375 8.10706 11.4672 8.32962 11.6313 8.49372C11.7954 8.65781 12.0179 8.75 12.25 8.75H16.625C16.8571 8.75 17.0796 8.65781 17.2437 8.49372C17.4078 8.32962 17.5 8.10706 17.5 7.875C17.5 7.64294 17.4078 7.42038 17.2437 7.25628C17.0796 7.09219 16.8571 7 16.625 7ZM27.125 12.25V15.75C27.125 16.4462 26.8484 17.1139 26.3562 17.6062C25.8639 18.0984 25.1962 18.375 24.5 18.375H24.2419L22.4689 23.3384C22.3475 23.6784 22.124 23.9725 21.8289 24.1805C21.5338 24.3884 21.1816 24.5 20.8206 24.5H19.4294C19.0684 24.5 18.7162 24.3884 18.4211 24.1805C18.126 23.9725 17.9025 23.6784 17.7811 23.3384L17.5711 22.75H11.3039L11.0939 23.3384C10.9725 23.6784 10.749 23.9725 10.4539 24.1805C10.1588 24.3884 9.80662 24.5 9.44563 24.5H8.05437C7.69338 24.5 7.3412 24.3884 7.04612 24.1805C6.75103 23.9725 6.52748 23.6784 6.40609 23.3384L5.03125 19.4928C3.72332 18.0125 2.90436 16.1645 2.68625 14.2013C2.40387 14.3496 2.16739 14.5722 2.00238 14.8452C1.83737 15.1182 1.7501 15.431 1.75 15.75C1.75 15.9821 1.65781 16.2046 1.49372 16.3687C1.32962 16.5328 1.10706 16.625 0.875 16.625C0.642936 16.625 0.420376 16.5328 0.256282 16.3687C0.0921872 16.2046 0 15.9821 0 15.75C0.00133698 14.9697 0.2634 14.2122 0.744553 13.5979C1.22571 12.9835 1.89835 12.5476 2.65563 12.3594C2.8511 9.94801 3.94627 7.69835 5.72368 6.0571C7.50109 4.41586 9.83073 3.50307 12.25 3.5H23.625C23.8571 3.5 24.0796 3.59219 24.2437 3.75628C24.4078 3.92038 24.5 4.14294 24.5 4.375C24.5 4.60706 24.4078 4.82962 24.2437 4.99372C24.0796 5.15781 23.8571 5.25 23.625 5.25H21.2855C22.7376 6.26882 23.8796 7.66941 24.5853 9.29688C24.6323 9.40625 24.6783 9.51562 24.722 9.625C25.3791 9.68077 25.991 9.98176 26.4363 10.4681C26.8815 10.9545 27.1274 11.5906 27.125 12.25ZM25.375 12.25C25.375 12.0179 25.2828 11.7954 25.1187 11.6313C24.9546 11.4672 24.7321 11.375 24.5 11.375H24.0997C23.9133 11.3752 23.7318 11.3159 23.5815 11.2057C23.4312 11.0956 23.32 10.9403 23.2641 10.7625C22.7627 9.16271 21.7633 7.76499 20.4115 6.77332C19.0598 5.78164 17.4265 5.24791 15.75 5.25H12.25C10.7217 5.24992 9.22644 5.69453 7.94649 6.52962C6.66655 7.36471 5.65725 8.55419 5.04167 9.95301C4.42609 11.3518 4.23083 12.8995 4.47971 14.4074C4.72859 15.9153 5.41084 17.3182 6.44328 18.445C6.52223 18.5309 6.58322 18.6316 6.62266 18.7414L8.05437 22.75H9.44563L9.86344 21.5808C9.9241 21.4109 10.0358 21.2639 10.1832 21.1599C10.3307 21.056 10.5066 21.0001 10.687 21H18.188C18.3684 21.0001 18.5443 21.056 18.6918 21.1599C18.8392 21.2639 18.9509 21.4109 19.0116 21.5808L19.4294 22.75H20.8206L22.8014 17.2058C22.8621 17.0359 22.9738 16.8889 23.1212 16.7849C23.2686 16.6809 23.4446 16.6251 23.625 16.625H24.5C24.7321 16.625 24.9546 16.5328 25.1187 16.3687C25.2828 16.2046 25.375 15.9821 25.375 15.75V12.25Z" fill="white"/>
</svg>
