<svg width="42" height="42" viewBox="0 0 42 42" fill="none" xmlns="http://www.w3.org/2000/svg">
<rect width="42" height="42" rx="12" fill="#FF8142"/>
<path d="M28 19.6875C28 19.9471 27.923 20.2008 27.7788 20.4167C27.6346 20.6325 27.4296 20.8008 27.1898 20.9001C26.9499 20.9994 26.686 21.0254 26.4314 20.9748C26.1768 20.9241 25.943 20.7991 25.7594 20.6156C25.5759 20.432 25.4509 20.1982 25.4002 19.9436C25.3496 19.689 25.3756 19.4251 25.4749 19.1852C25.5742 18.9454 25.7425 18.7404 25.9583 18.5962C26.1742 18.452 26.4279 18.375 26.6875 18.375C27.0356 18.375 27.3694 18.5133 27.6156 18.7594C27.8617 19.0056 28 19.3394 28 19.6875ZM23.625 14H19.25C19.0179 14 18.7954 14.0922 18.6313 14.2563C18.4672 14.4204 18.375 14.6429 18.375 14.875C18.375 15.1071 18.4672 15.3296 18.6313 15.4937C18.7954 15.6578 19.0179 15.75 19.25 15.75H23.625C23.8571 15.75 24.0796 15.6578 24.2437 15.4937C24.4078 15.3296 24.5 15.1071 24.5 14.875C24.5 14.6429 24.4078 14.4204 24.2437 14.2563C24.0796 14.0922 23.8571 14 23.625 14ZM34.125 19.25V22.75C34.125 23.4462 33.8484 24.1139 33.3562 24.6062C32.8639 25.0984 32.1962 25.375 31.5 25.375H31.2419L29.4689 30.3384C29.3475 30.6784 29.124 30.9725 28.8289 31.1805C28.5338 31.3884 28.1816 31.5 27.8206 31.5H26.4294C26.0684 31.5 25.7162 31.3884 25.4211 31.1805C25.126 30.9725 24.9025 30.6784 24.7811 30.3384L24.5711 29.75H18.3039L18.0939 30.3384C17.9725 30.6784 17.749 30.9725 17.4539 31.1805C17.1588 31.3884 16.8066 31.5 16.4456 31.5H15.0544C14.6934 31.5 14.3412 31.3884 14.0461 31.1805C13.751 30.9725 13.5275 30.6784 13.4061 30.3384L12.0312 26.4928C10.7233 25.0125 9.90436 23.1645 9.68625 21.2013C9.40387 21.3496 9.16739 21.5722 9.00238 21.8452C8.83737 22.1182 8.7501 22.431 8.75 22.75C8.75 22.9821 8.65781 23.2046 8.49372 23.3687C8.32962 23.5328 8.10706 23.625 7.875 23.625C7.64294 23.625 7.42038 23.5328 7.25628 23.3687C7.09219 23.2046 7 22.9821 7 22.75C7.00134 21.9697 7.2634 21.2122 7.74455 20.5979C8.22571 19.9835 8.89835 19.5476 9.65563 19.3594C9.8511 16.948 10.9463 14.6984 12.7237 13.0571C14.5011 11.4159 16.8307 10.5031 19.25 10.5H30.625C30.8571 10.5 31.0796 10.5922 31.2437 10.7563C31.4078 10.9204 31.5 11.1429 31.5 11.375C31.5 11.6071 31.4078 11.8296 31.2437 11.9937C31.0796 12.1578 30.8571 12.25 30.625 12.25H28.2855C29.7376 13.2688 30.8796 14.6694 31.5853 16.2969C31.6323 16.4062 31.6783 16.5156 31.722 16.625C32.3791 16.6808 32.991 16.9818 33.4363 17.4681C33.8815 17.9545 34.1274 18.5906 34.125 19.25ZM32.375 19.25C32.375 19.0179 32.2828 18.7954 32.1187 18.6313C31.9546 18.4672 31.7321 18.375 31.5 18.375H31.0997C30.9133 18.3752 30.7318 18.3159 30.5815 18.2057C30.4312 18.0956 30.32 17.9403 30.2641 17.7625C29.7627 16.1627 28.7633 14.765 27.4115 13.7733C26.0598 12.7816 24.4265 12.2479 22.75 12.25H19.25C17.7217 12.2499 16.2264 12.6945 14.9465 13.5296C13.6665 14.3647 12.6572 15.5542 12.0417 16.953C11.4261 18.3518 11.2308 19.8995 11.4797 21.4074C11.7286 22.9153 12.4108 24.3182 13.4433 25.445C13.5222 25.5309 13.5832 25.6316 13.6227 25.7414L15.0544 29.75H16.4456L16.8634 28.5808C16.9241 28.4109 17.0358 28.2639 17.1832 28.1599C17.3307 28.056 17.5066 28.0001 17.687 28H25.188C25.3684 28.0001 25.5443 28.056 25.6918 28.1599C25.8392 28.2639 25.9509 28.4109 26.0116 28.5808L26.4294 29.75H27.8206L29.8014 24.2058C29.8621 24.0359 29.9738 23.8889 30.1212 23.7849C30.2686 23.6809 30.4446 23.6251 30.625 23.625H31.5C31.7321 23.625 31.9546 23.5328 32.1187 23.3687C32.2828 23.2046 32.375 22.9821 32.375 22.75V19.25Z" fill="white"/>
</svg>
