<svg width="28" height="28" viewBox="0 0 28 28" fill="none" xmlns="http://www.w3.org/2000/svg">
<path d="M22.75 4.375H5.25C4.78587 4.375 4.34075 4.55937 4.01256 4.88756C3.68437 5.21575 3.5 5.66087 3.5 6.125V12.5541C3.5 22.3552 11.7928 25.6069 13.4531 26.1592C13.8077 26.2798 14.1923 26.2798 14.5469 26.1592C16.2094 25.6069 24.5 22.3552 24.5 12.5541V6.125C24.5 5.66087 24.3156 5.21575 23.9874 4.88756C23.6592 4.55937 23.2141 4.375 22.75 4.375ZM22.75 12.5552C22.75 21.1323 15.493 23.998 14 24.4967C12.5202 24.0034 5.25 21.14 5.25 12.5552V6.125H22.75V12.5552ZM9.00594 15.4941C8.84175 15.3299 8.74951 15.1072 8.74951 14.875C8.74951 14.6428 8.84175 14.4201 9.00594 14.2559C9.17012 14.0918 9.39281 13.9995 9.625 13.9995C9.85719 13.9995 10.0799 14.0918 10.2441 14.2559L12.25 16.2619L17.7559 10.7559C17.8372 10.6746 17.9337 10.6102 18.04 10.5662C18.1462 10.5222 18.26 10.4995 18.375 10.4995C18.49 10.4995 18.6038 10.5222 18.71 10.5662C18.8163 10.6102 18.9128 10.6746 18.9941 10.7559C19.0754 10.8372 19.1398 10.9337 19.1838 11.04C19.2278 11.1462 19.2505 11.26 19.2505 11.375C19.2505 11.49 19.2278 11.6038 19.1838 11.71C19.1398 11.8163 19.0754 11.9128 18.9941 11.9941L12.8691 18.1191C12.7878 18.2004 12.6913 18.265 12.5851 18.309C12.4788 18.353 12.365 18.3757 12.25 18.3757C12.135 18.3757 12.0212 18.353 11.9149 18.309C11.8087 18.265 11.7122 18.2004 11.6309 18.1191L9.00594 15.4941Z" fill="white"/>
</svg>
