<svg width="42" height="42" viewBox="0 0 42 42" fill="none" xmlns="http://www.w3.org/2000/svg">
<rect width="42" height="42" rx="12" fill="#FF8142"/>
<path d="M29.75 11.375H12.25C11.7859 11.375 11.3408 11.5594 11.0126 11.8876C10.6844 12.2158 10.5 12.6609 10.5 13.125V19.5541C10.5 29.3552 18.7928 32.6069 20.4531 33.1592C20.8077 33.2798 21.1923 33.2798 21.5469 33.1592C23.2094 32.6069 31.5 29.3552 31.5 19.5541V13.125C31.5 12.6609 31.3156 12.2158 30.9874 11.8876C30.6592 11.5594 30.2141 11.375 29.75 11.375ZM29.75 19.5552C29.75 28.1323 22.493 30.998 21 31.4967C19.5202 31.0034 12.25 28.14 12.25 19.5552V13.125H29.75V19.5552ZM16.0059 22.4941C15.8418 22.3299 15.7495 22.1072 15.7495 21.875C15.7495 21.6428 15.8418 21.4201 16.0059 21.2559C16.1701 21.0918 16.3928 20.9995 16.625 20.9995C16.8572 20.9995 17.0799 21.0918 17.2441 21.2559L19.25 23.2619L24.7559 17.7559C24.8372 17.6746 24.9337 17.6102 25.04 17.5662C25.1462 17.5222 25.26 17.4995 25.375 17.4995C25.49 17.4995 25.6038 17.5222 25.71 17.5662C25.8163 17.6102 25.9128 17.6746 25.9941 17.7559C26.0754 17.8372 26.1398 17.9337 26.1838 18.04C26.2278 18.1462 26.2505 18.26 26.2505 18.375C26.2505 18.49 26.2278 18.6038 26.1838 18.71C26.1398 18.8163 26.0754 18.9128 25.9941 18.9941L19.8691 25.1191C19.7878 25.2004 19.6913 25.265 19.5851 25.309C19.4788 25.353 19.365 25.3757 19.25 25.3757C19.135 25.3757 19.0212 25.353 18.9149 25.309C18.8087 25.265 18.7122 25.2004 18.6309 25.1191L16.0059 22.4941Z" fill="white"/>
</svg>
