<svg width="177" height="28" viewBox="0 0 177 28" fill="none" xmlns="http://www.w3.org/2000/svg">
<path d="M168.107 21.7948V10.6376C168.107 9.25182 168.494 8.17176 169.268 7.39738C170.063 6.60262 171.153 6.20524 172.539 6.20524H176.849V9.78166H173.273C173.008 9.78166 172.773 9.87336 172.57 10.0568C172.386 10.2402 172.295 10.4745 172.295 10.7598V21.7948H168.107Z" fill="#434A57"/>
<path d="M156.793 22.1616C155.183 22.1616 153.746 21.805 152.483 21.0917C151.22 20.3581 150.221 19.3799 149.487 18.1572C148.754 16.9141 148.387 15.5284 148.387 14C148.387 12.4716 148.754 11.0961 149.487 9.87337C150.221 8.63028 151.22 7.65212 152.483 6.93887C153.746 6.20525 155.183 5.83843 156.793 5.83843C158.403 5.83843 159.84 6.20525 161.103 6.93887C162.367 7.65212 163.365 8.63028 164.099 9.87337C164.832 11.0961 165.199 12.4716 165.199 14C165.199 15.5284 164.832 16.9141 164.099 18.1572C163.365 19.3799 162.367 20.3581 161.103 21.0917C159.84 21.805 158.403 22.1616 156.793 22.1616ZM156.793 18.5852C157.649 18.5852 158.383 18.3814 158.994 17.9738C159.626 17.5662 160.105 17.016 160.431 16.3231C160.777 15.6303 160.95 14.8559 160.95 14C160.95 13.1441 160.777 12.3697 160.431 11.6769C160.105 10.984 159.626 10.4338 158.994 10.0262C158.383 9.61864 157.649 9.41485 156.793 9.41485C155.937 9.41485 155.193 9.61864 154.562 10.0262C153.95 10.4338 153.471 10.984 153.125 11.6769C152.799 12.3697 152.636 13.1441 152.636 14C152.636 14.8559 152.799 15.6303 153.125 16.3231C153.471 17.016 153.95 17.5662 154.562 17.9738C155.193 18.3814 155.937 18.5852 156.793 18.5852Z" fill="#434A57"/>
<path d="M127.994 21.7948V0.397385H140.007C141.026 0.397385 141.943 0.631737 142.758 1.10044C143.594 1.54877 144.256 2.1805 144.745 2.99564C145.254 3.81078 145.509 4.77875 145.509 5.89957C145.509 6.61281 145.366 7.29549 145.081 7.9476C144.796 8.57933 144.409 9.12955 143.92 9.59826C143.43 10.067 142.86 10.4338 142.208 10.6987C142.962 10.9432 143.624 11.3406 144.195 11.8908C144.786 12.4207 145.244 13.0524 145.57 13.786C145.917 14.4993 146.09 15.2737 146.09 16.1092C146.09 17.2504 145.825 18.2489 145.295 19.1048C144.786 19.9607 144.103 20.623 143.247 21.0917C142.391 21.5604 141.433 21.7948 140.374 21.7948H127.994ZM132.365 17.9432H139.12C139.61 17.9432 140.048 17.8312 140.435 17.607C140.822 17.3624 141.128 17.0466 141.352 16.6594C141.596 16.2518 141.719 15.8137 141.719 15.345C141.719 14.8559 141.596 14.4178 141.352 14.0306C141.128 13.6434 140.822 13.3377 140.435 13.1135C140.048 12.869 139.61 12.7467 139.12 12.7467H132.365V17.9432ZM132.365 9.07861H138.723C139.171 9.07861 139.579 8.97671 139.946 8.77293C140.313 8.54877 140.598 8.25328 140.802 7.88647C141.026 7.51965 141.138 7.11208 141.138 6.66376C141.138 6.21543 141.026 5.80787 140.802 5.44105C140.598 5.07424 140.313 4.78894 139.946 4.58516C139.579 4.361 139.171 4.24891 138.723 4.24891H132.365V9.07861Z" fill="#434A57"/>
<path d="M114.492 22.1616C113.066 22.1616 111.823 21.7948 110.763 21.0611C109.703 20.3275 108.878 19.3493 108.287 18.1266C107.716 16.8836 107.431 15.5182 107.431 14.0306C107.431 12.5022 107.757 11.1165 108.409 9.87337C109.082 8.63028 110.039 7.65212 111.283 6.93887C112.526 6.20525 114.013 5.83843 115.745 5.83843C117.498 5.83843 118.975 6.20525 120.178 6.93887C121.38 7.67249 122.297 8.66085 122.929 9.90393C123.561 11.147 123.876 12.5226 123.876 14.0306V21.7948H119.689V19.1965H119.628C119.322 19.7467 118.935 20.246 118.466 20.6943C118.018 21.1427 117.467 21.4993 116.815 21.7642C116.163 22.0291 115.389 22.1616 114.492 22.1616ZM115.684 18.5852C116.499 18.5852 117.203 18.3814 117.793 17.9738C118.384 17.5662 118.833 17.016 119.138 16.3231C119.465 15.6099 119.628 14.8253 119.628 13.9694C119.628 13.1135 119.465 12.3493 119.138 11.6769C118.833 10.984 118.384 10.4338 117.793 10.0262C117.203 9.61864 116.499 9.41485 115.684 9.41485C114.849 9.41485 114.125 9.61864 113.514 10.0262C112.923 10.4338 112.465 10.984 112.138 11.6769C111.833 12.3493 111.68 13.1135 111.68 13.9694C111.68 14.8253 111.833 15.6099 112.138 16.3231C112.465 17.016 112.923 17.5662 113.514 17.9738C114.125 18.3814 114.849 18.5852 115.684 18.5852Z" fill="#434A57"/>
<path d="M101.609 21.7948C100.223 21.7948 99.1331 21.3974 98.3384 20.6026C97.564 19.8079 97.1768 18.7278 97.1768 17.3624V2.29258H101.365V17.2402C101.365 17.5051 101.456 17.7394 101.64 17.9432C101.843 18.1266 102.078 18.2183 102.343 18.2183H105.736V21.7948H101.609ZM94.5174 9.78166V6.20524H105.736V9.78166H94.5174Z" fill="#434A57"/>
<path d="M84.5531 21.7948V10.6376C84.5531 9.25182 84.9403 8.17176 85.7146 7.39738C86.5094 6.60262 87.5997 6.20524 88.9854 6.20524H93.2954V9.78166H89.719C89.4541 9.78166 89.2197 9.87336 89.016 10.0568C88.8326 10.2402 88.7408 10.4745 88.7408 10.7598V21.7948H84.5531Z" fill="#434A57"/>
<path d="M73.1229 22.1616C71.5334 22.1616 70.168 21.8457 69.0268 21.214C67.8856 20.5822 67.0094 19.7365 66.398 18.6768C65.807 17.6172 65.5115 16.4454 65.5115 15.1616V6.20524H69.6993V15.1616C69.6993 15.7933 69.8522 16.3741 70.1578 16.9039C70.4635 17.4134 70.8711 17.821 71.3805 18.1266C71.9104 18.4323 72.4912 18.5851 73.1229 18.5851C73.7546 18.5851 74.3252 18.4323 74.8347 18.1266C75.3645 17.821 75.7823 17.4134 76.088 16.9039C76.3936 16.3741 76.5465 15.7933 76.5465 15.1616V6.20524H80.7343V15.1616C80.7343 16.4454 80.4286 17.6172 79.8172 18.6768C79.2262 19.7365 78.3602 20.5822 77.219 21.214C76.0982 21.8457 74.7328 22.1616 73.1229 22.1616Z" fill="#434A57"/>
<path d="M56.8155 10.1179L58.405 5.47161C57.7937 5.24745 57.3352 4.88064 57.0295 4.37118C56.7442 3.84134 56.6016 3.3115 56.6016 2.78166C56.6016 2.00728 56.8767 1.35517 57.4269 0.825328C57.9975 0.275109 58.67 0 59.4443 0C60.3206 0 61.0135 0.295488 61.5229 0.886464C62.0324 1.47744 62.2871 2.17031 62.2871 2.96506C62.2871 3.51528 62.2362 4.02474 62.1343 4.49345C62.0528 4.94178 61.9 5.47162 61.6758 6.08297L60.3002 10.1179H56.8155Z" fill="#434A57"/>
<path d="M41.4469 28V24.4236H49.4556C49.7409 24.4236 49.9753 24.3217 50.1587 24.1179C50.3421 23.9345 50.4338 23.7103 50.4338 23.4454V19.6245H50.4032C49.9345 20.1543 49.4556 20.5822 48.9665 20.9083C48.4775 21.2344 47.9476 21.4789 47.377 21.6419C46.8268 21.7846 46.2155 21.8559 45.543 21.8559C44.1572 21.8559 42.904 21.5298 41.7831 20.8777C40.6827 20.2052 39.8064 19.2678 39.1543 18.0655C38.5022 16.8632 38.1762 15.4673 38.1762 13.8777C38.1762 12.3697 38.492 11.0146 39.1238 9.81223C39.7759 8.58952 40.7133 7.62155 41.936 6.9083C43.1587 6.19506 44.6463 5.83843 46.3989 5.83843C48.0903 5.83843 49.5473 6.18487 50.77 6.87773C51.9927 7.5706 52.9403 8.54877 53.6128 9.81223C54.2853 11.0757 54.6216 12.5735 54.6216 14.3057V23.5677C54.6216 24.933 54.2242 26.0131 53.4294 26.8079C52.655 27.6026 51.575 28 50.1893 28H41.4469ZM46.3989 18.2795C47.2344 18.2795 47.9476 18.0859 48.5386 17.6987C49.1296 17.3115 49.5779 16.802 49.8836 16.1703C50.2096 15.5182 50.3727 14.7948 50.3727 14C50.3727 13.1441 50.2096 12.3697 49.8836 11.6769C49.5779 10.984 49.1296 10.4338 48.5386 10.0262C47.9476 9.61864 47.2344 9.41485 46.3989 9.41485C45.5837 9.41485 44.8705 9.61864 44.2591 10.0262C43.6681 10.4134 43.2096 10.9432 42.8836 11.6157C42.5779 12.2882 42.4251 13.0422 42.4251 13.8777C42.4251 14.6929 42.5779 15.4367 42.8836 16.1092C43.2096 16.7613 43.6681 17.2911 44.2591 17.6987C44.8705 18.0859 45.5837 18.2795 46.3989 18.2795Z" fill="#434A57"/>
<path d="M27.5102 22.1616C25.9207 22.1616 24.5553 21.8457 23.4141 21.214C22.2729 20.5822 21.3967 19.7365 20.7853 18.6768C20.1943 17.6172 19.8988 16.4454 19.8988 15.1616V6.20524H24.0866V15.1616C24.0866 15.7933 24.2395 16.3741 24.5451 16.9039C24.8508 17.4134 25.2584 17.821 25.7678 18.1266C26.2977 18.4323 26.8785 18.5851 27.5102 18.5851C28.1419 18.5851 28.7125 18.4323 29.222 18.1266C29.7518 17.821 30.1696 17.4134 30.4753 16.9039C30.7809 16.3741 30.9338 15.7933 30.9338 15.1616V6.20524H35.1215V15.1616C35.1215 16.4454 34.8159 17.6172 34.2045 18.6768C33.6135 19.7365 32.7475 20.5822 31.6063 21.214C30.4854 21.8457 29.1201 22.1616 27.5102 22.1616Z" fill="#434A57"/>
<path d="M0.886463 21.7948V17.9432H10.0568C10.5051 17.9432 10.9127 17.8312 11.2795 17.607C11.6463 17.3828 11.9418 17.0873 12.1659 16.7205C12.3901 16.3333 12.5022 15.9156 12.5022 15.4673C12.5022 14.9985 12.3901 14.5808 12.1659 14.214C11.9418 13.8268 11.6463 13.5211 11.2795 13.2969C10.9127 13.0728 10.5051 12.9607 10.0568 12.9607H6.48035C5.27802 12.9607 4.18777 12.7162 3.20961 12.2271C2.23144 11.738 1.44687 11.0349 0.855895 10.1179C0.285298 9.1805 0 8.05968 0 6.75546C0 5.47162 0.275109 4.361 0.825327 3.42359C1.37555 2.4658 2.11936 1.72199 3.05677 1.19214C3.99418 0.662305 5.03348 0.397385 6.17467 0.397385H15.4672V4.24891H6.60262C6.19505 4.24891 5.81805 4.361 5.47161 4.58516C5.12518 4.78894 4.85007 5.06405 4.64629 5.41049C4.46288 5.75692 4.37118 6.14411 4.37118 6.57206C4.37118 7 4.46288 7.3872 4.64629 7.73363C4.85007 8.08006 5.12518 8.35517 5.47161 8.55895C5.81805 8.76274 6.19505 8.86463 6.60262 8.86463H10.3013C11.6259 8.86463 12.7773 9.11936 13.7555 9.62882C14.7336 10.1383 15.4876 10.8515 16.0175 11.7686C16.5677 12.6856 16.8428 13.7555 16.8428 14.9782C16.8428 16.425 16.5575 17.6579 15.9869 18.6769C15.4367 19.6958 14.6827 20.4702 13.7249 21C12.7875 21.5298 11.7482 21.7948 10.607 21.7948H0.886463Z" fill="#434A57"/>
</svg>
