<svg width="190" height="32" viewBox="0 0 190 32" fill="none" xmlns="http://www.w3.org/2000/svg">
<path d="M1.26316 32V26.24H14.3303C14.9691 26.24 15.5499 26.0724 16.0726 25.7372C16.5953 25.4019 17.0163 24.96 17.3358 24.4115C17.6552 23.8324 17.8149 23.2076 17.8149 22.5372C17.8149 21.8362 17.6552 21.2115 17.3358 20.6629C17.0163 20.0838 16.5953 19.6267 16.0726 19.2915C15.5499 18.9562 14.9691 18.7886 14.3303 18.7886H9.23412C7.52087 18.7886 5.96733 18.4229 4.5735 17.6915C3.17967 16.96 2.06171 15.9086 1.2196 14.5372C0.406534 13.1353 0 11.4591 0 9.50865C0 7.58865 0.392014 5.92771 1.17604 4.52581C1.96007 3.09343 3.01996 1.98105 4.35572 1.18867C5.69147 0.396296 7.17241 0.000106085 8.79855 0.000106085L16.6969 0V5.75998L9.40835 5.76009C8.82759 5.76009 8.29038 5.92771 7.79673 6.26294C7.30308 6.5677 6.91107 6.97913 6.62069 7.49723C6.35935 8.01532 6.22867 8.59436 6.22867 9.23436C6.22867 9.87436 6.35935 10.4534 6.62069 10.9715C6.91107 11.4896 7.30308 11.901 7.79673 12.2058C8.29038 12.5105 8.82759 12.6629 9.40835 12.6629H14.6788C16.5662 12.6629 18.2069 13.0439 19.6007 13.8058C20.9946 14.5677 22.069 15.6343 22.824 17.0058C23.608 18.3772 24 19.9772 24 21.8057C24 23.9695 23.5935 25.8134 22.7804 27.3372C21.9964 28.861 20.922 30.0191 19.5572 30.8114C18.2214 31.6038 16.7405 32 15.1143 32H1.26316Z" fill="#FF8142"/>
<path d="M17.4934 0H29.8907C31.3161 0 32.5989 0.350477 33.7392 1.05143C34.908 1.72191 35.8346 2.66667 36.5187 3.88572C37.2314 5.10476 37.5878 6.55238 37.5878 8.22857C37.5878 9.29524 37.3882 10.3162 36.9891 11.2914C36.59 12.2362 36.0483 13.059 35.3642 13.76C34.68 14.461 33.8818 15.0095 32.9695 15.4057C34.0243 15.7714 34.9508 16.3657 35.749 17.1886C36.5757 17.981 37.2172 18.9257 37.6733 20.0229C38.1579 21.0895 38.4002 22.2476 38.4002 23.4971C38.4002 25.2038 38.0297 26.6971 37.2884 27.9771C36.5758 29.2571 35.6207 30.2476 34.4234 30.9486C33.2261 31.6495 31.8862 32 30.4038 32H19.3175C19.3175 32 20.8001 31.4669 22.5068 29.3335C24.2135 27.2002 24.2135 26.283 24.2135 26.283L28.6506 26.24C29.3348 26.24 29.9477 26.0724 30.4893 25.7371C31.031 25.3714 31.4586 24.899 31.7722 24.32C32.1143 23.7105 32.2853 23.0552 32.2853 22.3543C32.2853 21.6229 32.1143 20.9676 31.7722 20.3886C31.4586 19.8095 31.031 19.3524 30.4893 19.0171C29.9477 18.6514 29.3348 18.4686 28.6506 18.4686H24.4268C24.4268 18.4686 24 17.0058 22.7201 15.2534C21.4403 13.5011 19.8401 12.9829 19.8401 12.9829H28.0947C28.7219 12.9829 29.292 12.8305 29.8052 12.5257C30.3183 12.1905 30.7174 11.7486 31.0025 11.2C31.3161 10.6514 31.4729 10.0419 31.4729 9.37143C31.4729 8.70095 31.3161 8.09143 31.0025 7.54286C30.7174 6.99429 30.3183 6.56762 29.8052 6.26286C29.292 5.92762 28.7219 5.76 28.0947 5.76H17.4934V0Z" fill="#434A57"/>
<path d="M182.484 22.1243V13.358C182.484 12.2692 182.788 11.4205 183.397 10.8121C184.021 10.1877 184.878 9.87542 185.967 9.87542H189.353V12.6855H186.543C186.335 12.6855 186.151 12.7575 185.991 12.9016C185.847 13.0457 185.775 13.2299 185.775 13.454V22.1243H182.484Z" fill="#434A57"/>
<path d="M173.595 22.4127C172.33 22.4127 171.201 22.1325 170.208 21.572C169.216 20.9956 168.431 20.2271 167.855 19.2664C167.278 18.2897 166.99 17.2009 166.99 16C166.99 14.7991 167.278 13.7183 167.855 12.7576C168.431 11.7809 169.216 11.0124 170.208 10.452C171.201 9.87553 172.33 9.58732 173.595 9.58732C174.86 9.58732 175.989 9.87553 176.981 10.452C177.974 11.0124 178.759 11.7809 179.335 12.7576C179.912 13.7183 180.2 14.7991 180.2 16C180.2 17.2009 179.912 18.2897 179.335 19.2664C178.759 20.2271 177.974 20.9956 176.981 21.572C175.989 22.1325 174.86 22.4127 173.595 22.4127ZM173.595 19.6026C174.267 19.6026 174.844 19.4425 175.324 19.1223C175.821 18.802 176.197 18.3697 176.453 17.8253C176.725 17.2809 176.861 16.6725 176.861 16C176.861 15.3275 176.725 14.7191 176.453 14.1747C176.197 13.6303 175.821 13.198 175.324 12.8777C174.844 12.5575 174.267 12.3974 173.595 12.3974C172.922 12.3974 172.338 12.5575 171.842 12.8777C171.361 13.198 170.985 13.6303 170.713 14.1747C170.457 14.7191 170.329 15.3275 170.329 16C170.329 16.6725 170.457 17.2809 170.713 17.8253C170.985 18.3697 171.361 18.802 171.842 19.1223C172.338 19.4425 172.922 19.6026 173.595 19.6026Z" fill="#434A57"/>
<path d="M150.967 22.1244V5.31214H160.406C161.206 5.31214 161.927 5.49628 162.567 5.86454C163.224 6.2168 163.744 6.71316 164.128 7.35363C164.529 7.99409 164.729 8.75465 164.729 9.63529C164.729 10.1957 164.617 10.7321 164.393 11.2445C164.169 11.7408 163.864 12.1731 163.48 12.5414C163.096 12.9097 162.647 13.1979 162.135 13.406C162.727 13.5982 163.248 13.9104 163.696 14.3427C164.161 14.759 164.521 15.2554 164.777 15.8318C165.049 16.3922 165.185 17.0007 165.185 17.6571C165.185 18.5538 164.977 19.3384 164.561 20.0108C164.161 20.6833 163.624 21.2037 162.952 21.572C162.279 21.9402 161.527 22.1244 160.694 22.1244H150.967ZM154.401 19.0982H159.709C160.094 19.0982 160.438 19.0101 160.742 18.834C161.046 18.6418 161.286 18.3937 161.463 18.0894C161.655 17.7692 161.751 17.425 161.751 17.0567C161.751 16.6724 161.655 16.3282 161.463 16.0239C161.286 15.7197 161.046 15.4795 160.742 15.3034C160.438 15.1113 160.094 15.0152 159.709 15.0152H154.401V19.0982ZM154.401 12.1331H159.397C159.749 12.1331 160.07 12.053 160.358 11.8929C160.646 11.7168 160.87 11.4846 161.03 11.1964C161.206 10.9082 161.294 10.588 161.294 10.2357C161.294 9.88347 161.206 9.56324 161.03 9.27503C160.87 8.98682 160.646 8.76265 160.358 8.60254C160.07 8.42641 159.749 8.33835 159.397 8.33835H154.401V12.1331Z" fill="#434A57"/>
<path d="M140.358 22.4127C139.238 22.4127 138.261 22.1244 137.428 21.548C136.596 20.9716 135.947 20.2031 135.483 19.2424C135.035 18.2656 134.81 17.1929 134.81 16.024C134.81 14.8231 135.067 13.7343 135.579 12.7576C136.107 11.7809 136.86 11.0124 137.837 10.452C138.813 9.87553 139.982 9.58732 141.343 9.58732C142.72 9.58732 143.881 9.87553 144.826 10.452C145.77 11.0284 146.491 11.8049 146.987 12.7816C147.484 13.7584 147.732 14.8391 147.732 16.024V22.1244H144.441V20.083H144.393C144.153 20.5153 143.849 20.9076 143.481 21.2598C143.128 21.6121 142.696 21.8923 142.184 22.1004C141.671 22.3086 141.063 22.4127 140.358 22.4127ZM141.295 19.6026C141.936 19.6026 142.488 19.4425 142.952 19.1223C143.417 18.802 143.769 18.3697 144.009 17.8253C144.265 17.2649 144.393 16.6485 144.393 15.976C144.393 15.3035 144.265 14.703 144.009 14.1747C143.769 13.6303 143.417 13.198 142.952 12.8777C142.488 12.5575 141.936 12.3974 141.295 12.3974C140.639 12.3974 140.07 12.5575 139.59 12.8777C139.126 13.198 138.765 13.6303 138.509 14.1747C138.269 14.703 138.149 15.3035 138.149 15.976C138.149 16.6485 138.269 17.2649 138.509 17.8253C138.765 18.3697 139.126 18.802 139.59 19.1223C140.07 19.4425 140.639 19.6026 141.295 19.6026Z" fill="#434A57"/>
<path d="M130.236 22.1245C129.147 22.1245 128.291 21.8122 127.666 21.1878C127.058 20.5633 126.754 19.7147 126.754 18.6419V6.80131H130.044V18.5459C130.044 18.754 130.116 18.9381 130.26 19.0983C130.42 19.2424 130.604 19.3144 130.812 19.3144H133.478V22.1245H130.236ZM124.664 12.6856V9.87555H133.478V12.6856H124.664Z" fill="#434A57"/>
<path d="M116.835 22.1243V13.358C116.835 12.2692 117.139 11.4205 117.748 10.8121C118.372 10.1877 119.229 9.87542 120.317 9.87542H123.704V12.6855H120.894C120.686 12.6855 120.502 12.7575 120.341 12.9016C120.197 13.0457 120.125 13.2299 120.125 13.454V22.1243H116.835Z" fill="#434A57"/>
<path d="M107.854 22.4125C106.605 22.4125 105.532 22.1644 104.636 21.668C103.739 21.1716 103.051 20.5072 102.57 19.6746C102.106 18.842 101.874 17.9213 101.874 16.9125V9.87542H105.164V16.9125C105.164 17.4089 105.284 17.8652 105.524 18.2815C105.765 18.6818 106.085 19.0021 106.485 19.2422C106.901 19.4824 107.358 19.6025 107.854 19.6025C108.35 19.6025 108.799 19.4824 109.199 19.2422C109.615 19.0021 109.944 18.6818 110.184 18.2815C110.424 17.8652 110.544 17.4089 110.544 16.9125V9.87542H113.834V16.9125C113.834 17.9213 113.594 18.842 113.114 19.6746C112.65 20.5072 111.969 21.1716 111.072 21.668C110.192 22.1644 109.119 22.4125 107.854 22.4125Z" fill="#434A57"/>
<path d="M99.1721 5L97.9232 8.65066C98.4035 8.82678 98.7638 9.11499 99.004 9.51529C99.2281 9.93159 99.3402 10.3479 99.3402 10.7642C99.3402 11.3726 99.124 11.885 98.6917 12.3013C98.2434 12.7336 97.715 12.9498 97.1066 12.9498C96.4181 12.9498 95.8737 12.7176 95.4734 12.2533C95.0731 11.7889 94.8729 11.2445 94.8729 10.6201C94.8729 10.1878 94.913 9.78748 94.993 9.41922C95.0571 9.06696 95.1772 8.65066 95.3533 8.17031L96.4341 5H99.1721Z" fill="#434A57"/>
<path d="M82.9657 27V24.19H89.2583C89.4824 24.19 89.6666 24.1099 89.8107 23.9498C89.9548 23.8057 90.0268 23.6295 90.0268 23.4214V20.4192H90.0028C89.6346 20.8355 89.2583 21.1718 88.874 21.4279C88.4897 21.6841 88.0734 21.8763 87.6251 22.0044C87.1928 22.1164 86.7124 22.1725 86.184 22.1725C85.0953 22.1725 84.1105 21.9163 83.2299 21.4039C82.3653 20.8755 81.6768 20.139 81.1644 19.1943C80.652 18.2496 80.3958 17.1528 80.3958 15.9039C80.3958 14.7191 80.644 13.6543 81.1404 12.7096C81.6527 11.7489 82.3893 10.9883 83.35 10.4279C84.3107 9.86753 85.4795 9.58732 86.8565 9.58732C88.1855 9.58732 89.3303 9.85952 90.291 10.4039C91.2517 10.9483 91.9963 11.7169 92.5247 12.7096C93.0531 13.7023 93.3172 14.8792 93.3172 16.2402V23.5175C93.3172 24.5902 93.005 25.4389 92.3806 26.0633C91.7721 26.6878 90.9235 27 89.8347 27H82.9657ZM86.8565 19.3624C87.513 19.3624 88.0734 19.2103 88.5378 18.9061C89.0021 18.6019 89.3544 18.2016 89.5945 17.7052C89.8507 17.1929 89.9788 16.6244 89.9788 16C89.9788 15.3275 89.8507 14.7191 89.5945 14.1747C89.3544 13.6303 89.0021 13.198 88.5378 12.8777C88.0734 12.5575 87.513 12.3974 86.8565 12.3974C86.2161 12.3974 85.6557 12.5575 85.1753 12.8777C84.711 13.1819 84.3507 13.5982 84.0945 14.1266C83.8544 14.655 83.7343 15.2474 83.7343 15.9039C83.7343 16.5444 83.8544 17.1288 84.0945 17.6572C84.3507 18.1696 84.711 18.5859 85.1753 18.9061C85.6557 19.2103 86.2161 19.3624 86.8565 19.3624Z" fill="#434A57"/>
<path d="M72.0154 22.4125C70.7665 22.4125 69.6937 22.1644 68.7971 21.668C67.9004 21.1716 67.2119 20.5072 66.7316 19.6746C66.2673 18.842 66.0351 17.9213 66.0351 16.9125V9.87542H69.3255V16.9125C69.3255 17.4089 69.4456 17.8652 69.6857 18.2815C69.9259 18.6818 70.2461 19.0021 70.6464 19.2422C71.0627 19.4824 71.5191 19.6025 72.0154 19.6025C72.5118 19.6025 72.9601 19.4824 73.3604 19.2422C73.7767 19.0021 74.105 18.6818 74.3451 18.2815C74.5853 17.8652 74.7054 17.4089 74.7054 16.9125V9.87542H77.9958V16.9125C77.9958 17.9213 77.7556 18.842 77.2753 19.6746C76.8109 20.5072 76.1304 21.1716 75.2338 21.668C74.3531 22.1644 73.2804 22.4125 72.0154 22.4125Z" fill="#434A57"/>
<path d="M51.0968 22.1244V19.0982H58.302C58.6543 19.0982 58.9745 19.0101 59.2627 18.834C59.5509 18.6579 59.7831 18.4257 59.9592 18.1375C60.1354 17.8333 60.2234 17.505 60.2234 17.1528C60.2234 16.7845 60.1354 16.4563 59.9592 16.168C59.7831 15.8638 59.5509 15.6236 59.2627 15.4475C58.9745 15.2714 58.6543 15.1833 58.302 15.1833H55.492C54.5473 15.1833 53.6907 14.9912 52.9221 14.6069C52.1535 14.2226 51.5371 13.6702 51.0728 12.9497C50.6244 12.2132 50.4003 11.3325 50.4003 10.3078C50.4003 9.29904 50.6164 8.42641 51.0487 7.68987C51.4811 6.93733 52.0655 6.3529 52.802 5.9366C53.5386 5.52029 54.3551 5.31214 55.2518 5.31214H62.5531V8.33835H55.588C55.2678 8.33835 54.9716 8.42641 54.6994 8.60254C54.4272 8.76265 54.211 8.97881 54.0509 9.25101C53.9068 9.52321 53.8348 9.82743 53.8348 10.1637C53.8348 10.4999 53.9068 10.8041 54.0509 11.0763C54.211 11.3485 54.4272 11.5647 54.6994 11.7248C54.9716 11.8849 55.2678 11.965 55.588 11.965H58.4942C59.5349 11.965 60.4396 12.1651 61.2081 12.5654C61.9767 12.9657 62.5691 13.5261 62.9854 14.2466C63.4177 14.9672 63.6339 15.8078 63.6339 16.7685C63.6339 17.9053 63.4097 18.874 62.9614 19.6746C62.5291 20.4752 61.9367 21.0836 61.1841 21.4999C60.4476 21.9162 59.631 22.1244 58.7343 22.1244H51.0968Z" fill="#434A57"/>
</svg>
