<svg width="56" height="56" viewBox="0 0 56 56" fill="none" xmlns="http://www.w3.org/2000/svg">
<rect x="0.5" y="0.5" width="55" height="55" rx="27.5" stroke="white"/>
<path fill-rule="evenodd" clip-rule="evenodd" d="M28.2929 35.2937C28.6834 35.6799 29.3166 35.6799 29.7071 35.2937L36.3738 28.6995C36.7643 28.3132 36.7643 27.6869 36.3738 27.3006L29.7071 20.7064C29.3166 20.3201 28.6834 20.3201 28.2929 20.7064C27.9024 21.0927 27.9024 21.719 28.2929 22.1053L34.2525 28L28.2929 33.8948C27.9024 34.2811 27.9024 34.9074 28.2929 35.2937Z" fill="white"/>
<path fill-rule="evenodd" clip-rule="evenodd" d="M19.3333 28C19.3333 28.5983 19.7645 29.0834 20.2963 29.0834L35.7037 29.0834C36.2355 29.0834 36.6667 28.5983 36.6667 28C36.6667 27.4017 36.2355 26.9167 35.7037 26.9167L20.2963 26.9167C19.7645 26.9167 19.3333 27.4017 19.3333 28Z" fill="white"/>
</svg>
