<svg width="63" height="21" viewBox="0 0 63 21" fill="none" xmlns="http://www.w3.org/2000/svg">
<g clip-path="url(#clip0_2005_13894)">
<path d="M3.49906 0.319626C3.49906 0.143102 3.35757 0 3.18302 0H2.09589C1.92135 0 1.77986 0.143102 1.77986 0.319626V2.85108C1.77986 3.0276 1.63837 3.1707 1.46384 3.1707H0.316026C0.14149 3.1707 0 3.3138 0 3.49032V4.38529C0 4.56181 0.14149 4.70491 0.316026 4.70491H1.46384C1.63837 4.70491 1.77986 4.84802 1.77986 5.02454C1.77986 5.02454 1.77986 12.4493 1.77986 14.3927C1.77986 16.336 2.48776 16.7042 4.26763 16.7042H5.26628C5.4408 16.7042 5.58229 16.5611 5.58229 16.3846V15.4896C5.58229 15.3131 5.4408 15.17 5.26628 15.17H4.79351C3.72153 15.17 3.49906 15.0268 3.49906 14.229V5.02454C3.49906 4.84802 3.64055 4.70491 3.81509 4.70491H5.26628C5.4408 4.70491 5.58229 4.56181 5.58229 4.38529V3.49032C5.58229 3.3138 5.4408 3.1707 5.26628 3.1707H3.81509C3.64055 3.1707 3.49906 3.0276 3.49906 2.85107V0.319626Z" fill="#434A57"/>
<path d="M18.4767 16.3846C18.4767 16.5612 18.6182 16.7043 18.7927 16.7043H19.8799C20.0544 16.7043 20.1959 16.5612 20.1959 16.3846V6.44804C20.1959 6.27152 20.0544 6.12842 19.8799 6.12842H18.7927C18.6182 6.12842 18.4767 6.27152 18.4767 6.44804V16.3846Z" fill="#434A57"/>
<path d="M27.0661 15.2926C24.8009 15.2926 24.1132 13.1652 24.1132 11.2628C24.1132 9.23761 25.0031 7.41703 27.2077 7.41703C29.3719 7.41703 30.1809 9.3399 30.1809 11.2014C30.1809 13.1856 29.3314 15.2926 27.0661 15.2926ZM31.8798 6.4479C31.8798 6.27137 31.7383 6.12827 31.5639 6.12827H30.5778C30.4033 6.12827 30.2618 6.27137 30.2618 6.4479V7.62919C30.2618 7.63628 30.2561 7.64203 30.2491 7.64203C30.2445 7.64203 30.2402 7.63942 30.238 7.63531C29.6101 6.47376 28.439 5.88281 27.1268 5.88281C23.5064 5.88281 22.2929 8.97167 22.2929 11.4673C22.2929 14.3517 23.8503 16.8268 26.965 16.8268C28.2746 16.8268 29.6445 16.1976 30.2148 14.9187C30.2188 14.9098 30.2276 14.904 30.2373 14.904C30.2508 14.904 30.2618 14.9151 30.2618 14.9288V15.5995C30.2618 17.9724 29.3719 19.6089 27.1268 19.6089C26.0871 19.6089 24.7405 19.2296 24.4641 18.1862C24.4209 18.0234 24.2869 17.8906 24.1203 17.8906H23.0277C22.8477 17.8906 22.7023 18.0438 22.7282 18.2239C23.0229 20.2794 25.1613 20.9999 27.0257 20.9999C30.3225 20.9999 31.8798 19.2407 31.8798 15.804V6.4479Z" fill="#434A57"/>
<path d="M38.6802 15.2926C36.4149 15.2926 35.7271 13.1652 35.7271 11.2628C35.7271 9.23761 36.617 7.41703 38.8217 7.41703C40.9859 7.41703 41.7949 9.3399 41.7949 11.2014C41.7949 13.1856 40.9454 15.2926 38.6802 15.2926ZM43.4937 6.4479C43.4937 6.27137 43.3522 6.12827 43.1778 6.12827H42.1917C42.0173 6.12827 41.8758 6.27137 41.8758 6.4479V7.62919C41.8758 7.63628 41.87 7.64203 41.863 7.64203C41.8585 7.64203 41.8542 7.63942 41.8521 7.63531C41.2239 6.47376 40.0531 5.88281 38.7407 5.88281C35.1205 5.88281 33.9068 8.97167 33.9068 11.4673C33.9068 14.3517 35.4641 16.8268 38.5791 16.8268C39.8887 16.8268 41.2586 16.1976 41.8286 14.9187C41.8329 14.9098 41.8417 14.904 41.8512 14.904C41.8649 14.904 41.8758 14.9151 41.8758 14.9288V15.5995C41.8758 17.9724 40.9859 19.6089 38.7407 19.6089C37.7011 19.6089 36.3543 19.2296 36.078 18.1862C36.0348 18.0234 35.9009 17.8906 35.7344 17.8906H34.6418C34.4616 17.8906 34.3164 18.0438 34.3423 18.2239C34.6369 20.2794 36.7752 20.9999 38.6397 20.9999C41.9364 20.9999 43.4937 19.2407 43.4937 15.804V6.4479Z" fill="#434A57"/>
<path d="M53.561 13.3493C53.413 13.3493 53.2864 13.4537 53.2432 13.5968C52.8795 14.8036 51.9254 15.4154 50.5975 15.4154C48.4409 15.4154 47.4007 13.9582 47.3413 12.247C47.3352 12.0748 47.4764 11.9378 47.6469 11.9378H54.8648C55.0346 11.9378 55.1746 11.8028 55.1746 11.6312C55.1764 9.11039 53.991 5.88281 50.4356 5.88281C47.5839 5.88281 45.5207 8.21482 45.5207 11.3855C45.622 14.6176 47.1995 16.9496 50.537 16.9496C52.752 16.9496 54.3544 15.8189 54.9177 13.7297C54.9704 13.5349 54.8203 13.3493 54.6207 13.3493H53.561ZM47.6822 10.4036C47.498 10.4036 47.352 10.2448 47.3818 10.0612C47.6195 8.59863 48.6631 7.41703 50.3346 7.41703C51.9178 7.41703 53.0968 8.57145 53.3156 10.0694C53.3421 10.2502 53.197 10.4036 53.0162 10.4036H47.6822Z" fill="#434A57"/>
<path d="M56.8899 16.3847C56.8899 16.5612 57.0314 16.7043 57.2058 16.7043H58.293C58.4677 16.7043 58.6092 16.5612 58.6092 16.3847V11.9994C58.6092 9.42436 59.5429 7.85043 62.0745 7.73137C62.2489 7.72315 62.3913 7.58099 62.3913 7.40447V6.1924C62.3913 6.01993 62.2556 5.8774 62.0851 5.88118C60.4073 5.91825 59.3375 6.75055 58.5553 8.34405C58.5511 8.35263 58.5425 8.35823 58.5328 8.35823C58.5191 8.35823 58.5078 8.34691 58.5078 8.33297V6.44812C58.5078 6.27159 58.3666 6.12849 58.1919 6.12849H57.2058C57.0314 6.12849 56.8899 6.27159 56.8899 6.44812V16.3847Z" fill="#434A57"/>
<path d="M16.8371 3.17139C17.0117 3.17139 17.1532 3.31446 17.1532 3.49101V4.59053C17.1532 4.76705 17.0117 4.91013 16.8371 4.91013L12.5012 4.91016C9.9552 4.91016 8.39898 5.85458 8.28126 8.415C8.27313 8.59133 8.13255 8.73544 7.95801 8.73544H6.75964C6.58908 8.73544 6.4482 8.59818 6.45192 8.42577C6.48856 6.72885 7.31148 5.64689 8.88703 4.8558C8.89552 4.85154 8.90106 4.84268 8.90106 4.8331C8.90106 4.81916 8.88989 4.80786 8.87611 4.80786H7.01246C6.83795 4.80786 6.69646 4.66476 6.69646 4.48824V3.49101C6.69646 3.31446 6.83795 3.17139 7.01246 3.17139H16.8371Z" fill="#434A57"/>
<path d="M18.2962 4.54786H19.7603C19.8306 4.54786 19.8946 4.52415 19.9432 4.48516C20.3008 4.46827 20.5837 4.25449 20.5837 3.99327C20.5837 3.73205 20.3008 3.51828 19.9432 3.50142C19.8946 3.46243 19.8306 3.43872 19.7603 3.43872H18.4256C18.3877 3.43872 18.357 3.46629 18.357 3.50032C18.357 3.53435 18.3877 3.56195 18.4256 3.56195H18.7311C18.769 3.56195 18.7997 3.58953 18.7997 3.62358C18.7997 3.65761 18.769 3.68518 18.7311 3.68518H18.1667C18.1288 3.68518 18.0981 3.71279 18.0981 3.74681C18.0981 3.78084 18.1288 3.80841 18.1667 3.80841H18.5473C18.5852 3.80841 18.6159 3.83602 18.6159 3.87004C18.6159 3.90407 18.5852 3.93167 18.5473 3.93167H17.9078C17.8699 3.93167 17.8392 3.95925 17.8392 3.99327C17.8392 4.0273 17.8699 4.0549 17.9078 4.0549H18.6509C18.6888 4.0549 18.7195 4.08248 18.7195 4.11653C18.7195 4.15056 18.6888 4.17813 18.6509 4.17813H18.2444C18.2065 4.17813 18.1758 4.20574 18.1758 4.23976C18.1758 4.27379 18.2065 4.30136 18.2444 4.30136H18.4955C18.5334 4.30136 18.5641 4.32897 18.5641 4.36299C18.5641 4.39702 18.5334 4.42462 18.4955 4.42462H18.2962C18.2583 4.42462 18.2276 4.4522 18.2276 4.48623C18.2276 4.52025 18.2583 4.54786 18.2962 4.54786Z" fill="#2CD7B8"/>
</g>
<defs>
<clipPath id="clip0_2005_13894">
<rect width="62.3913" height="21" fill="white"/>
</clipPath>
</defs>
</svg>
