<svg width="42" height="42" viewBox="0 0 42 42" fill="none" xmlns="http://www.w3.org/2000/svg">
<rect width="42" height="42" rx="12" fill="#FF8142"/>
<path d="M33.25 20.8502C33.0502 18.5598 32.2124 16.3712 30.8316 14.5329C29.4509 12.6946 27.5824 11.2801 25.4384 10.4501C23.2943 9.62002 20.9606 9.4076 18.7019 9.83693C16.4432 10.2663 14.3501 11.3201 12.6601 12.8789C10.404 14.9516 9.01014 17.7971 8.75545 20.8502C8.73468 21.0918 8.76437 21.3351 8.84262 21.5647C8.92088 21.7942 9.04599 22.005 9.21002 22.1837C9.37405 22.3623 9.57343 22.5049 9.79549 22.6024C10.0176 22.6999 10.2575 22.7502 10.5 22.75H20.125V28.875C20.125 29.8033 20.4937 30.6935 21.1501 31.3499C21.8065 32.0063 22.6967 32.375 23.625 32.375C24.5532 32.375 25.4435 32.0063 26.0999 31.3499C26.7562 30.6935 27.125 29.8033 27.125 28.875C27.125 28.643 27.0328 28.4204 26.8687 28.2563C26.7046 28.0922 26.482 28 26.25 28C26.0179 28 25.7954 28.0922 25.6313 28.2563C25.4672 28.4204 25.375 28.643 25.375 28.875C25.375 29.3392 25.1906 29.7843 24.8624 30.1125C24.5342 30.4407 24.0891 30.625 23.625 30.625C23.1609 30.625 22.7157 30.4407 22.3875 30.1125C22.0594 29.7843 21.875 29.3392 21.875 28.875V22.75H31.5C31.743 22.7509 31.9835 22.7012 32.2062 22.604C32.4289 22.5069 32.6289 22.3644 32.7936 22.1857C32.9582 22.007 33.0838 21.7959 33.1624 21.566C33.2409 21.3361 33.2708 21.0923 33.25 20.8502ZM10.5 21C10.6939 18.746 11.6095 16.6146 13.111 14.9223C14.6124 13.2299 16.6195 12.0669 18.8344 11.6058C17.5525 13.3438 15.9523 16.4183 15.7686 21H10.5ZM17.5164 21C17.6684 17.6346 18.6681 15.2239 19.518 13.755C19.937 13.0253 20.4339 12.3432 21 11.7207C21.565 12.3433 22.0608 13.0254 22.4787 13.755C23.9312 16.2641 24.3906 18.9525 24.4803 21H17.5164ZM26.2281 21C26.0444 16.4183 24.4442 13.3438 23.1656 11.6003C25.3819 12.0604 27.3904 13.2239 28.8922 14.9176C30.3939 16.6112 31.3085 18.7446 31.5 21H26.2281Z" fill="white"/>
</svg>
