<svg width="28" height="28" viewBox="0 0 28 28" fill="none" xmlns="http://www.w3.org/2000/svg">
<path d="M26.25 13.8502C26.0502 11.5598 25.2124 9.37121 23.8316 7.5329C22.4509 5.69459 20.5824 4.28014 18.4384 3.45008C16.2943 2.62002 13.9606 2.4076 11.7019 2.83693C9.44321 3.26625 7.35011 4.32012 5.66014 5.87894C3.40401 7.95161 2.01014 10.7971 1.75545 13.8502C1.73468 14.0918 1.76437 14.3351 1.84262 14.5647C1.92088 14.7942 2.04599 15.005 2.21002 15.1837C2.37405 15.3623 2.57343 15.5049 2.79549 15.6024C3.01755 15.6999 3.25746 15.7502 3.49998 15.75H13.125V21.875C13.125 22.8033 13.4937 23.6935 14.1501 24.3499C14.8065 25.0063 15.6967 25.375 16.625 25.375C17.5532 25.375 18.4435 25.0063 19.0999 24.3499C19.7562 23.6935 20.125 22.8033 20.125 21.875C20.125 21.643 20.0328 21.4204 19.8687 21.2563C19.7046 21.0922 19.482 21 19.25 21C19.0179 21 18.7954 21.0922 18.6313 21.2563C18.4672 21.4204 18.375 21.643 18.375 21.875C18.375 22.3392 18.1906 22.7843 17.8624 23.1125C17.5342 23.4407 17.0891 23.625 16.625 23.625C16.1609 23.625 15.7157 23.4407 15.3875 23.1125C15.0594 22.7843 14.875 22.3392 14.875 21.875V15.75H24.5C24.743 15.7509 24.9835 15.7012 25.2062 15.604C25.4289 15.5069 25.6289 15.3644 25.7936 15.1857C25.9582 15.007 26.0838 14.7959 26.1624 14.566C26.2409 14.3361 26.2708 14.0923 26.25 13.8502ZM3.49998 14C3.69391 11.746 4.60955 9.61462 6.11095 7.92228C7.61236 6.22995 9.61949 5.0669 11.8344 4.60582C10.5525 6.34379 8.95233 9.41832 8.76858 14H3.49998ZM10.5164 14C10.6684 10.6346 11.6681 8.22394 12.518 6.75504C12.937 6.02534 13.4339 5.34323 14 4.72066C14.565 5.34333 15.0608 6.02544 15.4787 6.75504C16.9312 9.2641 17.3906 11.9525 17.4803 14H10.5164ZM19.2281 14C19.0444 9.41832 17.4442 6.34379 16.1656 4.60035C18.3819 5.06041 20.3904 6.22387 21.8922 7.91755C23.3939 9.61123 24.3085 11.7446 24.5 14H19.2281Z" fill="white"/>
</svg>
